<svg width="213" height="158" viewBox="0 0 213 158" fill="none" xmlns="http://www.w3.org/2000/svg">
<path d="M212.046 138.848H0V138.954H212.046V138.848Z" fill="#EBEBEB"/>
<path d="M190.799 145.672H176.753V145.778H190.799V145.672Z" fill="#EBEBEB"/>
<path d="M140.468 146.825H136.783V146.931H140.468V146.825Z" fill="#EBEBEB"/>
<path d="M176.329 141.736H168.191V141.842H176.329V141.736Z" fill="#EBEBEB"/>
<path d="M40.5645 142.449H22.2479V142.555H40.5645V142.449Z" fill="#EBEBEB"/>
<path d="M47.0276 142.449H44.3431V142.555H47.0276V142.449Z" fill="#EBEBEB"/>
<path d="M95.4845 144.238H55.7555V144.344H95.4845V144.238Z" fill="#EBEBEB"/>
<path d="M100.51 119.933H18.6219C17.9804 119.932 17.3656 119.677 16.9123 119.223C16.4591 118.769 16.2046 118.153 16.2046 117.512V2.40037C16.2102 1.76254 16.4672 1.15268 16.9198 0.703238C17.3724 0.253802 17.9841 0.00109263 18.6219 0H100.51C101.152 0 101.768 0.255129 102.222 0.709261C102.676 1.16339 102.932 1.77933 102.932 2.42157V117.512C102.932 118.154 102.676 118.77 102.222 119.224C101.768 119.678 101.152 119.933 100.51 119.933ZM18.6219 0.0848189C18.0085 0.0859423 17.4206 0.330396 16.9873 0.764523C16.554 1.19865 16.3106 1.78698 16.3106 2.40037V117.512C16.3106 118.125 16.554 118.714 16.9873 119.148C17.4206 119.582 18.0085 119.826 18.6219 119.827H100.51C101.124 119.826 101.712 119.582 102.146 119.148C102.58 118.714 102.824 118.126 102.826 117.512V2.40037C102.824 1.78659 102.58 1.19827 102.146 0.764265C101.712 0.330258 101.124 0.0859399 100.51 0.0848189H18.6219Z" fill="#EBEBEB"/>
<path d="M192.245 119.933H110.353C109.711 119.932 109.096 119.677 108.642 119.223C108.188 118.769 107.933 118.154 107.932 117.512V2.40037C107.938 1.76215 108.196 1.15229 108.65 0.702973C109.103 0.253654 109.715 0.00108071 110.353 0H192.245C192.883 0.00220719 193.493 0.25541 193.945 0.704727C194.397 1.15404 194.653 1.76327 194.659 2.40037V117.512C194.659 118.153 194.405 118.767 193.952 119.221C193.5 119.675 192.886 119.931 192.245 119.933ZM110.353 0.0848189C109.739 0.0859399 109.151 0.330258 108.717 0.764265C108.283 1.19827 108.039 1.78659 108.038 2.40037V117.512C108.039 118.126 108.283 118.714 108.717 119.148C109.151 119.582 109.739 119.826 110.353 119.827H192.245C192.859 119.826 193.448 119.582 193.882 119.148C194.316 118.714 194.56 118.126 194.561 117.512V2.40037C194.56 1.78659 194.316 1.19827 193.882 0.764265C193.448 0.330258 192.859 0.0859399 192.245 0.0848189H110.353Z" fill="#EBEBEB"/>
<path d="M181.011 66.6504V30.9842L135.112 30.9842V66.6504H181.011Z" fill="#E0E0E0"/>
<path d="M179.616 32.4643H136.499V65.1831H179.616V32.4643Z" fill="#EBEBEB"/>
<path d="M157.271 47.8843H152.071V55.2381H157.271V47.8843Z" fill="#F5F5F5"/>
<path d="M164.048 50.0557H158.573V57.9268H164.048V50.0557Z" fill="#F5F5F5"/>
<path d="M162.758 36.9004L157.33 36.1868L156.304 43.9908L161.732 44.7044L162.758 36.9004Z" fill="#F5F5F5"/>
<path d="M176.096 36.2006H170.621V44.0717H176.096V36.2006Z" fill="#F5F5F5"/>
<path d="M169.557 35.3736H164.081V43.2447H169.557V35.3736Z" fill="#F5F5F5"/>
<path d="M143.644 35.1403H140.247V38.5373H143.644V35.1403Z" fill="#F5F5F5"/>
<path d="M148.585 36.1762L145.413 34.9622L144.198 38.1348L147.371 39.3488L148.585 36.1762Z" fill="#F5F5F5"/>
<path d="M141.948 35.5729C141.948 35.6123 141.936 35.6509 141.915 35.6836C141.893 35.7164 141.861 35.742 141.825 35.7571C141.789 35.7721 141.749 35.7761 141.71 35.7684C141.671 35.7607 141.636 35.7417 141.608 35.7138C141.58 35.686 141.561 35.6505 141.553 35.6118C141.546 35.5731 141.55 35.533 141.565 35.4966C141.58 35.4602 141.605 35.4291 141.638 35.4072C141.671 35.3853 141.709 35.3736 141.749 35.3736C141.802 35.3736 141.852 35.3946 141.89 35.432C141.927 35.4693 141.948 35.52 141.948 35.5729Z" fill="#E0E0E0"/>
<path d="M145.858 35.5729C145.858 35.6123 145.847 35.6509 145.825 35.6836C145.803 35.7164 145.772 35.742 145.735 35.7571C145.699 35.7721 145.659 35.7761 145.62 35.7684C145.581 35.7607 145.546 35.7417 145.518 35.7138C145.49 35.686 145.471 35.6505 145.463 35.6118C145.456 35.5731 145.46 35.533 145.475 35.4966C145.49 35.4602 145.515 35.4291 145.548 35.4072C145.581 35.3853 145.619 35.3736 145.659 35.3736C145.712 35.3736 145.762 35.3946 145.8 35.432C145.837 35.4693 145.858 35.52 145.858 35.5729Z" fill="#E0E0E0"/>
<path d="M160.091 43.7579C160.091 43.7973 160.079 43.8359 160.057 43.8686C160.035 43.9014 160.004 43.927 159.968 43.942C159.931 43.9571 159.891 43.9611 159.853 43.9534C159.814 43.9457 159.778 43.9267 159.751 43.8988C159.723 43.871 159.704 43.8354 159.696 43.7968C159.688 43.7581 159.692 43.718 159.707 43.6816C159.722 43.6452 159.748 43.6141 159.781 43.5922C159.813 43.5703 159.852 43.5586 159.891 43.5586C159.944 43.5586 159.995 43.5796 160.032 43.6169C160.07 43.6543 160.091 43.705 160.091 43.7579Z" fill="#E0E0E0"/>
<path d="M154.87 48.4187C154.87 48.4715 154.849 48.5222 154.812 48.5596C154.774 48.597 154.724 48.618 154.671 48.618C154.618 48.618 154.567 48.597 154.53 48.5596C154.493 48.5222 154.472 48.4715 154.472 48.4187C154.472 48.3658 154.493 48.3151 154.53 48.2777C154.567 48.2404 154.618 48.2193 154.671 48.2193C154.724 48.2193 154.774 48.2404 154.812 48.2777C154.849 48.3151 154.87 48.3658 154.87 48.4187Z" fill="#E0E0E0"/>
<path d="M157.856 36.7646C157.856 36.804 157.844 36.8426 157.822 36.8753C157.8 36.9081 157.769 36.9337 157.733 36.9488C157.696 36.9638 157.656 36.9678 157.618 36.9601C157.579 36.9524 157.543 36.9334 157.516 36.9055C157.488 36.8777 157.469 36.8422 157.461 36.8035C157.453 36.7648 157.457 36.7247 157.472 36.6883C157.487 36.6519 157.513 36.6208 157.546 36.5989C157.579 36.577 157.617 36.5653 157.656 36.5653C157.709 36.5653 157.76 36.5863 157.797 36.6237C157.835 36.661 157.856 36.7117 157.856 36.7646Z" fill="#E0E0E0"/>
<path d="M167.016 35.8231C167.016 35.8625 167.005 35.9011 166.983 35.9339C166.961 35.9666 166.93 35.9922 166.893 36.0073C166.857 36.0224 166.817 36.0263 166.778 36.0186C166.739 36.0109 166.704 35.9919 166.676 35.9641C166.648 35.9362 166.629 35.9007 166.621 35.862C166.614 35.8233 166.618 35.7833 166.633 35.7468C166.648 35.7104 166.673 35.6793 166.706 35.6574C166.739 35.6355 166.777 35.6238 166.817 35.6238C166.87 35.6238 166.92 35.6448 166.958 35.6822C166.995 35.7196 167.016 35.7703 167.016 35.8231Z" fill="#E0E0E0"/>
<path d="M173.56 36.5653C173.56 36.6047 173.548 36.6432 173.526 36.676C173.504 36.7088 173.473 36.7343 173.437 36.7494C173.401 36.7645 173.36 36.7685 173.322 36.7608C173.283 36.7531 173.248 36.7341 173.22 36.7062C173.192 36.6783 173.173 36.6428 173.165 36.6042C173.157 36.5655 173.161 36.5254 173.177 36.489C173.192 36.4526 173.217 36.4214 173.25 36.3995C173.283 36.3776 173.321 36.366 173.361 36.366C173.414 36.366 173.464 36.387 173.502 36.4243C173.539 36.4617 173.56 36.5124 173.56 36.5653Z" fill="#E0E0E0"/>
<path d="M176.948 55.8064H166.041V62.6427H176.948V55.8064Z" fill="#E0E0E0"/>
<path d="M150.621 54.9412H141.1V62.4561H150.621V54.9412Z" fill="#E0E0E0"/>
<path d="M29.5126 74.7972L97.5201 74.7972V29.8307L29.5126 29.8307V74.7972Z" fill="#E0E0E0"/>
<path d="M31.8451 72.363L95.1919 72.363V32.265L31.8451 32.265L31.8451 72.363Z" fill="#EBEBEB"/>
<path d="M63.5206 36.2514L62.3459 51.7393L49.7418 50.3525L50.836 35.0555L63.5206 36.2514Z" fill="#F5F5F5"/>
<path d="M70.7726 67.7743C74.7778 67.7743 78.0246 64.5274 78.0246 60.5223C78.0246 56.5171 74.7778 53.2703 70.7726 53.2703C66.7674 53.2703 63.5206 56.5171 63.5206 60.5223C63.5206 64.5274 66.7674 67.7743 70.7726 67.7743Z" fill="#F5F5F5"/>
<path d="M44.78 52.5366L41.6205 57.5155L35.7298 57.7318L39.4873 62.2738L37.8757 67.9481L43.355 65.7768L48.249 69.0635L47.8801 63.1771L52.5197 59.5384L46.8071 58.071L44.78 52.5366Z" fill="#F5F5F5"/>
<path d="M80.4419 36.8494L88.576 38.4695L91.2393 46.3279L85.7643 52.5621L77.6302 50.9378L74.9669 43.0836L80.4419 36.8494Z" fill="#F5F5F5"/>
<path d="M107.949 39.4237H128.157V29.8985H107.949V39.4237Z" fill="#E0E0E0"/>
<path d="M107.944 47.7104H124.28V42.0954H107.944V47.7104Z" fill="#E0E0E0"/>
<path d="M107.949 39.4237H126.274V29.8985H107.949V39.4237Z" fill="#EBEBEB"/>
<path d="M107.944 47.7104H122.758V42.0954H107.944V47.7104Z" fill="#EBEBEB"/>
<path d="M69.4675 20.8681C70.8272 17.5855 69.2684 13.8221 65.9857 12.4624C62.7031 11.1027 58.9397 12.6615 57.58 15.9441C56.2202 19.2268 57.7791 22.9902 61.0617 24.3499C64.3444 25.7096 68.1078 24.1508 69.4675 20.8681Z" fill="#F0F0F0"/>
<path d="M68.1628 20.3277C69.224 17.7656 68.0073 14.8283 65.4453 13.7671C62.8832 12.7059 59.9459 13.9225 58.8847 16.4846C57.8234 19.0467 59.0401 21.9839 61.6022 23.0452C64.1642 24.1064 67.1015 22.8898 68.1628 20.3277Z" fill="#FAFAFA"/>
<path d="M65.1364 19.9578L63.3171 18.5074V15.0256H63.7199V18.3123L65.3909 19.644L65.1364 19.9578Z" fill="#F0F0F0"/>
<path d="M130.82 63.0965H101.405V64.6063H130.82V63.0965Z" fill="#E0E0E0"/>
<path d="M104.06 57.5239H102.762V63.0965H104.06V57.5239Z" fill="#EBEBEB"/>
<path d="M110.324 57.5239H109.026V63.0965H110.324V57.5239Z" fill="#EBEBEB"/>
<path d="M117.437 57.3801L116.158 57.6005L117.105 63.0921L118.384 62.8717L117.437 57.3801Z" fill="#EBEBEB"/>
<path d="M105.663 58.2576H104.365V63.0965H105.663V58.2576Z" fill="#EBEBEB"/>
<path d="M108.644 58.2576H107.346V63.0965H108.644V58.2576Z" fill="#EBEBEB"/>
<path d="M116.159 58.2576H114.861V63.0965H116.159V58.2576Z" fill="#EBEBEB"/>
<path d="M112.028 58.0828L110.761 58.3643L111.811 63.088L113.078 62.8064L112.028 58.0828Z" fill="#EBEBEB"/>
<path d="M106.782 57.2483H106.133V63.0965H106.782V57.2483Z" fill="#EBEBEB"/>
<path d="M114.492 57.2483H113.843V63.0965H114.492V57.2483Z" fill="#EBEBEB"/>
<path d="M128 58.686H121.685V63.0456H128V58.686Z" fill="#EBEBEB"/>
<path d="M101.409 75.8872H130.824V74.3774H101.409V75.8872Z" fill="#E0E0E0"/>
<path d="M128.169 74.3774H129.467V68.8048H128.169V74.3774Z" fill="#EBEBEB"/>
<path d="M121.905 74.3774H123.203V68.8048H121.905V74.3774Z" fill="#EBEBEB"/>
<path d="M113.85 74.1524L115.129 74.3728L116.076 68.8812L114.797 68.6608L113.85 74.1524Z" fill="#EBEBEB"/>
<path d="M126.566 74.3774H127.864V69.5385H126.566V74.3774Z" fill="#EBEBEB"/>
<path d="M123.585 74.3774H124.883V69.5385H123.585V74.3774Z" fill="#EBEBEB"/>
<path d="M116.066 74.3774H117.363V69.5385H116.066V74.3774Z" fill="#EBEBEB"/>
<path d="M119.144 74.1028L120.411 74.3841L121.46 69.6602L120.193 69.3789L119.144 74.1028Z" fill="#EBEBEB"/>
<path d="M125.447 74.3774H126.096V68.5292H125.447V74.3774Z" fill="#EBEBEB"/>
<path d="M117.737 74.3774H118.386V68.5292H117.737V74.3774Z" fill="#EBEBEB"/>
<path d="M104.229 74.3307H110.544V69.9711H104.229V74.3307Z" fill="#EBEBEB"/>
<path d="M165.651 79.721H149.153V138.538H165.651V79.721Z" fill="#F5F5F5"/>
<path d="M164.23 81.4004H150.578V137.207H164.23V81.4004Z" fill="#EBEBEB"/>
<path d="M161.745 83.0374H153.064V83.6141H161.745V83.0374Z" fill="#E0E0E0"/>
<path d="M161.745 85.5268H153.064V86.1036H161.745V85.5268Z" fill="#E0E0E0"/>
<path d="M161.745 88.012H153.064V88.5887H161.745V88.012Z" fill="#E0E0E0"/>
<path d="M161.745 90.4972H153.064V91.0739H161.745V90.4972Z" fill="#E0E0E0"/>
<path d="M161.745 92.9823H153.064V93.5591H161.745V92.9823Z" fill="#E0E0E0"/>
<path d="M161.745 95.4718H153.064V96.0485H161.745V95.4718Z" fill="#E0E0E0"/>
<path d="M161.745 97.9569H153.064V98.5337H161.745V97.9569Z" fill="#E0E0E0"/>
<path d="M161.745 118.178H153.064V118.754H161.745V118.178Z" fill="#E0E0E0"/>
<path d="M161.745 120.663H153.064V121.24H161.745V120.663Z" fill="#E0E0E0"/>
<path d="M161.745 123.148H153.064V123.725H161.745V123.148Z" fill="#E0E0E0"/>
<path d="M161.745 125.633H153.064V126.21H161.745V125.633Z" fill="#E0E0E0"/>
<path d="M161.745 128.123H153.064V128.699H161.745V128.123Z" fill="#E0E0E0"/>
<path d="M161.745 130.608H153.064V131.185H161.745V130.608Z" fill="#E0E0E0"/>
<path d="M161.745 133.093H153.064V133.67H161.745V133.093Z" fill="#E0E0E0"/>
<path d="M162.173 106.447C162.174 106.638 162.118 106.824 162.013 106.983C161.908 107.142 161.758 107.266 161.582 107.34C161.406 107.413 161.212 107.433 161.025 107.396C160.838 107.36 160.666 107.268 160.531 107.134C160.396 106.999 160.304 106.828 160.267 106.641C160.229 106.454 160.248 106.26 160.321 106.084C160.393 105.908 160.517 105.757 160.675 105.651C160.834 105.545 161.02 105.489 161.21 105.489C161.465 105.489 161.709 105.59 161.89 105.769C162.07 105.949 162.172 106.193 162.173 106.447Z" fill="#E0E0E0"/>
<path d="M148.67 79.721H132.173V138.538H148.67V79.721Z" fill="#F5F5F5"/>
<path d="M147.245 81.4004H133.593V137.207H147.245V81.4004Z" fill="#EBEBEB"/>
<path d="M144.76 83.0374H136.079V83.6141H144.76V83.0374Z" fill="#E0E0E0"/>
<path d="M144.76 85.5268H136.079V86.1036H144.76V85.5268Z" fill="#E0E0E0"/>
<path d="M144.76 88.012H136.079V88.5887H144.76V88.012Z" fill="#E0E0E0"/>
<path d="M144.76 90.4972H136.079V91.0739H144.76V90.4972Z" fill="#E0E0E0"/>
<path d="M144.76 92.9823H136.079V93.5591H144.76V92.9823Z" fill="#E0E0E0"/>
<path d="M144.76 95.4718H136.079V96.0485H144.76V95.4718Z" fill="#E0E0E0"/>
<path d="M144.76 97.9569H136.079V98.5337H144.76V97.9569Z" fill="#E0E0E0"/>
<path d="M144.76 118.178H136.079V118.754H144.76V118.178Z" fill="#E0E0E0"/>
<path d="M144.76 120.663H136.079V121.24H144.76V120.663Z" fill="#E0E0E0"/>
<path d="M144.76 123.148H136.079V123.725H144.76V123.148Z" fill="#E0E0E0"/>
<path d="M144.76 125.633H136.079V126.21H144.76V125.633Z" fill="#E0E0E0"/>
<path d="M144.76 128.123H136.079V128.699H144.76V128.123Z" fill="#E0E0E0"/>
<path d="M144.76 130.608H136.079V131.185H144.76V130.608Z" fill="#E0E0E0"/>
<path d="M144.76 133.093H136.079V133.67H144.76V133.093Z" fill="#E0E0E0"/>
<path d="M145.188 106.447C145.189 106.638 145.133 106.825 145.028 106.984C144.922 107.143 144.772 107.267 144.596 107.34C144.42 107.413 144.226 107.433 144.039 107.396C143.852 107.359 143.68 107.267 143.545 107.132C143.41 106.997 143.318 106.825 143.281 106.638C143.244 106.451 143.264 106.257 143.337 106.081C143.41 105.905 143.534 105.755 143.693 105.649C143.852 105.544 144.039 105.488 144.23 105.489C144.484 105.49 144.727 105.591 144.906 105.771C145.086 105.95 145.187 106.193 145.188 106.447Z" fill="#E0E0E0"/>
<path d="M182.636 79.721H166.138V138.538H182.636V79.721Z" fill="#F5F5F5"/>
<path d="M181.211 81.4004H167.559V137.207H181.211V81.4004Z" fill="#EBEBEB"/>
<path d="M178.725 83.0374H170.044V83.6141H178.725V83.0374Z" fill="#E0E0E0"/>
<path d="M178.725 85.5268H170.044V86.1036H178.725V85.5268Z" fill="#E0E0E0"/>
<path d="M178.725 88.012H170.044V88.5887H178.725V88.012Z" fill="#E0E0E0"/>
<path d="M178.725 90.4972H170.044V91.0739H178.725V90.4972Z" fill="#E0E0E0"/>
<path d="M178.725 92.9823H170.044V93.5591H178.725V92.9823Z" fill="#E0E0E0"/>
<path d="M178.725 95.4718H170.044V96.0485H178.725V95.4718Z" fill="#E0E0E0"/>
<path d="M178.725 97.9569H170.044V98.5337H178.725V97.9569Z" fill="#E0E0E0"/>
<path d="M178.725 118.178H170.044V118.754H178.725V118.178Z" fill="#E0E0E0"/>
<path d="M178.725 120.663H170.044V121.24H178.725V120.663Z" fill="#E0E0E0"/>
<path d="M178.725 123.148H170.044V123.725H178.725V123.148Z" fill="#E0E0E0"/>
<path d="M178.725 125.633H170.044V126.21H178.725V125.633Z" fill="#E0E0E0"/>
<path d="M178.725 128.123H170.044V128.699H178.725V128.123Z" fill="#E0E0E0"/>
<path d="M178.725 130.608H170.044V131.185H178.725V130.608Z" fill="#E0E0E0"/>
<path d="M178.725 133.093H170.044V133.67H178.725V133.093Z" fill="#E0E0E0"/>
<path d="M178.195 107.423C178.725 107.423 179.154 106.994 179.154 106.464C179.154 105.935 178.725 105.506 178.195 105.506C177.666 105.506 177.237 105.935 177.237 106.464C177.237 106.994 177.666 107.423 178.195 107.423Z" fill="#E0E0E0"/>
<path d="M46.7859 79.721H30.2887V138.538H46.7859V79.721Z" fill="#F5F5F5"/>
<path d="M45.361 81.4004H31.7094V137.207H45.361V81.4004Z" fill="#EBEBEB"/>
<path d="M42.8758 83.0374H34.1946V83.6141H42.8758V83.0374Z" fill="#E0E0E0"/>
<path d="M42.8758 85.5268H34.1946V86.1036H42.8758V85.5268Z" fill="#E0E0E0"/>
<path d="M42.8758 88.012H34.1946V88.5887H42.8758V88.012Z" fill="#E0E0E0"/>
<path d="M42.8758 90.4972H34.1946V91.0739H42.8758V90.4972Z" fill="#E0E0E0"/>
<path d="M42.8758 92.9823H34.1946V93.5591H42.8758V92.9823Z" fill="#E0E0E0"/>
<path d="M42.8758 95.4718H34.1946V96.0485H42.8758V95.4718Z" fill="#E0E0E0"/>
<path d="M42.8758 97.9569H34.1946V98.5337H42.8758V97.9569Z" fill="#E0E0E0"/>
<path d="M42.8758 118.178H34.1946V118.754H42.8758V118.178Z" fill="#E0E0E0"/>
<path d="M42.8758 120.663H34.1946V121.24H42.8758V120.663Z" fill="#E0E0E0"/>
<path d="M42.8758 123.148H34.1946V123.725H42.8758V123.148Z" fill="#E0E0E0"/>
<path d="M42.8758 125.633H34.1946V126.21H42.8758V125.633Z" fill="#E0E0E0"/>
<path d="M42.8758 128.123H34.1946V128.699H42.8758V128.123Z" fill="#E0E0E0"/>
<path d="M42.8758 130.608H34.1946V131.185H42.8758V130.608Z" fill="#E0E0E0"/>
<path d="M42.8758 133.093H34.1946V133.67H42.8758V133.093Z" fill="#E0E0E0"/>
<path d="M43.3041 106.447C43.305 106.638 43.2491 106.825 43.1436 106.984C43.0382 107.143 42.8879 107.267 42.7118 107.34C42.5357 107.413 42.3418 107.433 42.1547 107.396C41.9675 107.359 41.7956 107.267 41.6607 107.132C41.5258 106.997 41.434 106.825 41.397 106.638C41.36 106.451 41.3794 106.257 41.4528 106.081C41.5262 105.905 41.6503 105.755 41.8092 105.649C41.9682 105.544 42.1549 105.488 42.3457 105.489C42.5995 105.49 42.8427 105.591 43.0222 105.771C43.2017 105.95 43.303 106.193 43.3041 106.447Z" fill="#E0E0E0"/>
<path d="M63.7666 79.721H47.2694V138.538H63.7666V79.721Z" fill="#F5F5F5"/>
<path d="M62.3459 81.4004H48.6943V137.207H62.3459V81.4004Z" fill="#EBEBEB"/>
<path d="M59.8607 83.0374H51.1795V83.6141H59.8607V83.0374Z" fill="#E0E0E0"/>
<path d="M59.8607 85.5268H51.1795V86.1036H59.8607V85.5268Z" fill="#E0E0E0"/>
<path d="M59.8607 88.012H51.1795V88.5887H59.8607V88.012Z" fill="#E0E0E0"/>
<path d="M59.8607 90.4972H51.1795V91.0739H59.8607V90.4972Z" fill="#E0E0E0"/>
<path d="M59.8607 92.9823H51.1795V93.5591H59.8607V92.9823Z" fill="#E0E0E0"/>
<path d="M59.8607 95.4718H51.1795V96.0485H59.8607V95.4718Z" fill="#E0E0E0"/>
<path d="M59.8607 97.9569H51.1795V98.5337H59.8607V97.9569Z" fill="#E0E0E0"/>
<path d="M59.8607 118.178H51.1795V118.754H59.8607V118.178Z" fill="#E0E0E0"/>
<path d="M59.8607 120.663H51.1795V121.24H59.8607V120.663Z" fill="#E0E0E0"/>
<path d="M59.8607 123.148H51.1795V123.725H59.8607V123.148Z" fill="#E0E0E0"/>
<path d="M59.8607 125.633H51.1795V126.21H59.8607V125.633Z" fill="#E0E0E0"/>
<path d="M59.8607 128.123H51.1795V128.699H59.8607V128.123Z" fill="#E0E0E0"/>
<path d="M59.8607 130.608H51.1795V131.185H59.8607V130.608Z" fill="#E0E0E0"/>
<path d="M59.8607 133.093H51.1795V133.67H59.8607V133.093Z" fill="#E0E0E0"/>
<path d="M60.2848 106.447C60.2848 106.637 60.2286 106.822 60.1233 106.98C60.0179 107.137 59.8683 107.26 59.6931 107.333C59.518 107.405 59.3253 107.424 59.1393 107.387C58.9534 107.35 58.7826 107.259 58.6486 107.125C58.5146 106.991 58.4233 106.82 58.3863 106.634C58.3493 106.448 58.3683 106.256 58.4408 106.081C58.5134 105.905 58.6362 105.756 58.7938 105.65C58.9515 105.545 59.1368 105.489 59.3263 105.489C59.5802 105.49 59.8233 105.591 60.0028 105.771C60.1823 105.95 60.2837 106.193 60.2848 106.447Z" fill="#E0E0E0"/>
<path d="M106.023 158C151.436 158 188.251 155.851 188.251 153.199C188.251 150.548 151.436 148.399 106.023 148.399C60.6103 148.399 23.7958 150.548 23.7958 153.199C23.7958 155.851 60.6103 158 106.023 158Z" fill="#F5F5F5"/>
<path d="M64.7505 37.4135L36.103 37.3923C35.8162 37.3923 35.5411 37.5062 35.3383 37.709C35.1355 37.9118 35.0216 38.1869 35.0216 38.4737V58.5333C35.0216 58.8201 35.1355 59.0952 35.3383 59.298C35.5411 59.5008 35.8162 59.6147 36.103 59.6147H48.601C49.6188 61.6928 51.9938 64.9159 57.2822 66.731C57.2822 66.731 53.8555 63.4146 52.8589 59.6147H64.7335C64.8757 59.6153 65.0166 59.5877 65.148 59.5336C65.2795 59.4794 65.3989 59.3998 65.4995 59.2992C65.6 59.1987 65.6796 59.0793 65.7338 58.9478C65.7879 58.8163 65.8155 58.6755 65.815 58.5333V38.4737C65.8095 38.1935 65.6955 37.9263 65.4969 37.7286C65.2983 37.5308 65.0307 37.4178 64.7505 37.4135Z" fill="#407BFF"/>
<path opacity="0.7" d="M64.7505 37.4135L36.103 37.3923C35.8162 37.3923 35.5411 37.5062 35.3383 37.709C35.1355 37.9118 35.0216 38.1869 35.0216 38.4737V58.5333C35.0216 58.8201 35.1355 59.0952 35.3383 59.298C35.5411 59.5008 35.8162 59.6147 36.103 59.6147H48.601C49.6188 61.6928 51.9938 64.9159 57.2822 66.731C57.2822 66.731 53.8555 63.4146 52.8589 59.6147H64.7335C64.8757 59.6153 65.0166 59.5877 65.148 59.5336C65.2795 59.4794 65.3989 59.3998 65.4995 59.2992C65.6 59.1987 65.6796 59.0793 65.7338 58.9478C65.7879 58.8163 65.8155 58.6755 65.815 58.5333V38.4737C65.8095 38.1935 65.6955 37.9263 65.4969 37.7286C65.2983 37.5308 65.0307 37.4178 64.7505 37.4135Z" fill="white"/>
<path d="M41.7519 45.2253V50.976H40.645V46.1922H39.4406V45.2253H41.7519Z" fill="#407BFF"/>
<path d="M47.4984 48.6774H46.0692V50.0896H45.3779V48.6774H43.9572V47.9225H45.3779V46.523H46.0734V47.9225H47.4984V48.6774Z" fill="#407BFF"/>
<path d="M50.9335 45.2253V50.976H49.8267V46.1922H48.6307V45.2253H50.9335Z" fill="#407BFF"/>
<path d="M56.6842 47.0743V47.8122H53.1388V47.0743H56.6842ZM56.6842 48.8173V49.5468H53.1388V48.8131L56.6842 48.8173Z" fill="#407BFF"/>
<path d="M60.2212 46.8071C60.2212 46.383 59.8734 46.1371 59.3009 46.1371C58.696 46.182 58.126 46.4371 57.6893 46.858L57.2652 46.0098C57.8849 45.4859 58.6636 45.187 59.4748 45.1617C60.6071 45.1617 61.3874 45.7384 61.3874 46.6333C61.3874 47.2227 60.9336 47.8716 60.2933 48.5289L58.8174 49.9963H61.6419V50.9632H57.3755V50.1702L59.5426 47.9352C59.8913 47.648 60.1309 47.2498 60.2212 46.8071Z" fill="#407BFF"/>
<path d="M106.871 12.867C106.871 12.725 106.842 12.5844 106.787 12.4535C106.733 12.3225 106.652 12.2036 106.552 12.1035C106.451 12.0035 106.331 11.9243 106.2 11.8705C106.068 11.8166 105.928 11.7892 105.786 11.7898L73.7921 11.9679C73.6501 11.9685 73.5096 11.997 73.3786 12.0518C73.2476 12.1067 73.1287 12.1868 73.0287 12.2876C72.9286 12.3885 72.8495 12.508 72.7956 12.6394C72.7418 12.7708 72.7144 12.9116 72.7149 13.0536L72.8167 31.6076C72.819 31.8948 72.9349 32.1695 73.1392 32.3713C73.3435 32.5732 73.6194 32.686 73.9066 32.6848L91.0994 32.5873C90.8025 36.4889 87.397 40.3397 87.397 40.3397C92.6388 38.0751 94.5006 34.5042 95.1452 32.5661L105.938 32.5067C106.224 32.5045 106.498 32.389 106.699 32.1855C106.9 31.982 107.012 31.7071 107.011 31.421L106.871 12.867Z" fill="#407BFF"/>
<path opacity="0.7" d="M106.871 12.867C106.871 12.725 106.842 12.5844 106.787 12.4535C106.733 12.3225 106.652 12.2036 106.552 12.1035C106.451 12.0035 106.331 11.9243 106.2 11.8705C106.068 11.8166 105.928 11.7892 105.786 11.7898L73.7921 11.9679C73.6501 11.9685 73.5096 11.997 73.3786 12.0518C73.2476 12.1067 73.1287 12.1868 73.0287 12.2876C72.9286 12.3885 72.8495 12.508 72.7956 12.6394C72.7418 12.7708 72.7144 12.9116 72.7149 13.0536L72.8167 31.6076C72.819 31.8948 72.9349 32.1695 73.1392 32.3713C73.3435 32.5732 73.6194 32.686 73.9066 32.6848L91.0994 32.5873C90.8025 36.4889 87.397 40.3397 87.397 40.3397C92.6388 38.0751 94.5006 34.5042 95.1452 32.5661L105.938 32.5067C106.224 32.5045 106.498 32.389 106.699 32.1855C106.9 31.982 107.012 31.7071 107.011 31.421L106.871 12.867Z" fill="white"/>
<path d="M80.9678 19.9027L81.8796 21.3319L82.8168 19.9027H83.9916L82.5963 22.0231L84.0891 24.2708H82.8592L81.8796 22.7356L80.8236 24.2708H79.6319L81.1671 22.0231L79.7379 19.9027H80.9678Z" fill="#407BFF"/>
<path d="M88.0374 21.9935H86.6125V23.4057H85.9127V21.9935H84.492V21.2555H85.9127V19.8348H86.6125V21.2555H88.0374V21.9935Z" fill="#407BFF"/>
<path d="M89.3691 25.9333C88.9704 25.9399 88.583 25.8012 88.2791 25.5431L88.7372 24.7289C88.8949 24.8666 89.0961 24.9446 89.3055 24.9494C89.4427 24.9523 89.5775 24.9132 89.6919 24.8374C89.8064 24.7616 89.8949 24.6528 89.9458 24.5253L90.0773 24.2369L88.2622 19.9196H89.3691L90.6413 23.1131L91.7822 19.9196H92.8551L90.8873 24.8603C90.7883 25.1817 90.5856 25.4613 90.311 25.6554C90.0363 25.8496 89.7051 25.9472 89.3691 25.9333Z" fill="#407BFF"/>
<path d="M96.621 20.3861V21.1241H93.0756V20.3861H96.621ZM96.621 22.1249V22.8586H93.0756V22.1249H96.621Z" fill="#407BFF"/>
<path d="M100.056 18.5413V24.292H98.9451V19.5083H97.7491V18.5413H100.056Z" fill="#407BFF"/>
<path d="M162.852 31.2005C162.852 31.0583 162.823 30.9176 162.769 30.7863C162.714 30.6551 162.634 30.5359 162.533 30.4358C162.432 30.3357 162.312 30.2565 162.181 30.2029C162.049 30.1492 161.908 30.1222 161.766 30.1233L119.42 30.3735C119.133 30.3758 118.858 30.4917 118.657 30.696C118.455 30.9003 118.342 31.1762 118.343 31.4635L118.424 44.5085C118.424 44.6507 118.452 44.7915 118.506 44.9227C118.561 45.054 118.641 45.1731 118.742 45.2733C118.843 45.3734 118.963 45.4526 119.094 45.5062C119.226 45.5598 119.367 45.5869 119.509 45.5857L122.966 45.5645C122.966 50.8699 118.127 56.3619 118.127 56.3619C125.65 53.1091 127.817 47.7825 128.415 45.5306L161.855 45.3355C161.997 45.3344 162.137 45.3053 162.268 45.25C162.399 45.1946 162.518 45.114 162.617 45.0128C162.717 44.9116 162.796 44.7917 162.849 44.6601C162.902 44.5285 162.929 44.3876 162.928 44.2456L162.852 31.2005Z" fill="#407BFF"/>
<path opacity="0.7" d="M161.753 30.1106L119.408 30.3608C119.266 30.3619 119.125 30.391 118.994 30.4464C118.864 30.5017 118.745 30.5823 118.645 30.6835C118.546 30.7848 118.467 30.9046 118.414 31.0362C118.36 31.1679 118.333 31.3087 118.335 31.4507L118.411 44.4958C118.411 44.638 118.439 44.7788 118.494 44.91C118.548 45.0413 118.629 45.1604 118.729 45.2605C118.83 45.3607 118.95 45.4398 119.082 45.4935C119.213 45.5471 119.354 45.5741 119.497 45.573L122.953 45.5518C122.953 50.8572 118.114 56.3492 118.114 56.3492C125.637 53.0964 127.805 47.7698 128.407 45.5179L161.842 45.3228C161.984 45.3217 162.125 45.2926 162.255 45.2372C162.386 45.1819 162.505 45.1013 162.605 45.0001C162.704 44.8989 162.783 44.779 162.836 44.6474C162.889 44.5157 162.916 44.3749 162.915 44.2329L162.852 31.2005C162.853 31.0562 162.826 30.913 162.771 30.7794C162.717 30.6458 162.636 30.5246 162.533 30.4229C162.431 30.3213 162.309 30.2412 162.175 30.1876C162.041 30.1339 161.898 30.1077 161.753 30.1106Z" fill="white"/>
<path d="M133.042 38.55H129.798C129.851 38.8438 130.01 39.108 130.244 39.293C130.478 39.4781 130.772 39.5713 131.07 39.5551C131.291 39.5569 131.509 39.5138 131.713 39.4285C131.916 39.3432 132.1 39.2175 132.253 39.059L132.826 39.6612C132.589 39.91 132.302 40.106 131.984 40.2361C131.666 40.3662 131.324 40.4275 130.981 40.416C130.68 40.4308 130.379 40.3844 130.096 40.2797C129.813 40.1749 129.554 40.014 129.335 39.8066C129.116 39.5993 128.941 39.3497 128.821 39.073C128.701 38.7963 128.639 38.4981 128.637 38.1965C128.635 37.8949 128.695 37.596 128.811 37.3179C128.928 37.0399 129.1 36.7883 129.317 36.5785C129.533 36.3686 129.79 36.2048 130.072 36.0968C130.354 35.9889 130.654 35.939 130.956 35.9504C132.482 35.9504 133.165 36.9597 133.042 38.55ZM132.071 37.8376C132.074 37.6921 132.046 37.5476 131.99 37.4135C131.933 37.2793 131.85 37.1584 131.744 37.0586C131.638 36.9588 131.512 36.8821 131.375 36.8337C131.238 36.7853 131.092 36.7661 130.947 36.7773C130.653 36.771 130.368 36.8772 130.149 37.0743C129.931 37.2713 129.796 37.5444 129.772 37.8376H132.071Z" fill="#407BFF"/>
<path d="M137.139 36.472V37.2099H133.589V36.472H137.139ZM137.139 38.2108V38.9402H133.589V38.2108H137.139Z" fill="#407BFF"/>
<path d="M145.438 37.634V40.3736H144.365V37.9436C144.379 37.812 144.364 37.679 144.321 37.5539C144.278 37.4287 144.209 37.3145 144.117 37.2191C144.025 37.1238 143.914 37.0497 143.79 37.0019C143.667 36.9542 143.535 36.934 143.403 36.9427C143.245 36.9483 143.089 36.9863 142.947 37.0543C142.804 37.1224 142.677 37.2191 142.573 37.3384C142.469 37.4577 142.391 37.5971 142.343 37.7479C142.296 37.8987 142.279 38.0577 142.296 38.215V40.3821H141.223V37.9521C141.238 37.8213 141.224 37.6889 141.183 37.564C141.141 37.4392 141.073 37.325 140.982 37.2295C140.891 37.1341 140.781 37.0597 140.658 37.0116C140.536 36.9635 140.404 36.9429 140.273 36.9512C140.114 36.955 139.957 36.9917 139.813 37.0591C139.669 37.1264 139.541 37.223 139.436 37.3425C139.331 37.4621 139.252 37.6022 139.204 37.7538C139.156 37.9054 139.141 38.0654 139.158 38.2235V40.3906H138.085V35.9843H139.153V36.7943C139.302 36.5194 139.526 36.2932 139.8 36.1428C140.074 35.9924 140.385 35.9241 140.697 35.9461C141.031 35.9214 141.364 36.0124 141.639 36.204C141.914 36.3955 142.114 36.6758 142.207 36.9979C142.33 36.6704 142.555 36.3914 142.849 36.202C143.143 36.0125 143.491 35.9228 143.84 35.9461C144.832 35.9419 145.438 36.5907 145.438 37.634Z" fill="#407BFF"/>
<path d="M148.505 36.8961C148.176 36.9226 147.87 37.0716 147.647 37.3137C147.423 37.5557 147.299 37.873 147.299 38.2023C147.299 38.5316 147.423 38.8488 147.647 39.0909C147.87 39.3329 148.176 39.482 148.505 39.5085C148.729 39.5219 148.953 39.4819 149.158 39.392C149.364 39.3021 149.545 39.1647 149.688 38.9911L150.354 39.5424C150.132 39.8367 149.84 40.0708 149.504 40.2234C149.169 40.376 148.8 40.4422 148.432 40.4161C147.857 40.391 147.314 40.1448 146.915 39.7288C146.517 39.3128 146.295 38.7591 146.295 38.1832C146.295 37.6073 146.517 37.0536 146.915 36.6376C147.314 36.2216 147.857 35.9754 148.432 35.9504C148.78 35.9317 149.128 35.9949 149.446 36.1348C149.765 36.2747 150.047 36.4876 150.269 36.7561L149.62 37.3711C149.477 37.2187 149.304 37.0978 149.112 37.016C148.92 36.9342 148.713 36.8934 148.505 36.8961Z" fill="#407BFF"/>
<path d="M152.555 36.2727C152.555 36.0521 152.377 35.9291 152.071 35.9291C151.712 35.9592 151.373 36.1084 151.108 36.3532L150.807 35.7892C151.201 35.4777 151.684 35.3022 152.186 35.2888C152.877 35.2888 153.36 35.6323 153.36 36.1666C153.295 36.6122 153.059 37.0151 152.703 37.2905L151.855 38.1047H153.475V38.7197H150.879V38.2023L152.152 36.9046C152.356 36.7477 152.499 36.524 152.555 36.2727Z" fill="#407BFF"/>
<path d="M72.7312 81.405L69.8404 81.801L75.5649 123.591L78.4557 123.195L72.7312 81.405Z" fill="#263238"/>
<path d="M54.654 81.4074L51.7632 81.8034L57.4877 123.593L60.3785 123.197L54.654 81.4074Z" fill="#263238"/>
<g opacity="0.3">
<path d="M72.7312 81.405L69.8404 81.801L75.5649 123.591L78.4557 123.195L72.7312 81.405Z" fill="white"/>
</g>
<g opacity="0.4">
<path d="M54.6539 81.4074L51.7632 81.8034L57.4877 123.593L60.3785 123.197L54.6539 81.4074Z" fill="white"/>
</g>
<path d="M74.6954 95.5735H52.8971C52.3231 95.5731 51.7689 95.3636 51.338 94.9843C50.9072 94.605 50.6292 94.0818 50.5561 93.5124L49.0081 81.4258C48.9757 81.1687 48.9982 80.9076 49.0744 80.6599C49.1505 80.4122 49.2784 80.1835 49.4497 79.989C49.6209 79.7944 49.8316 79.6386 50.0677 79.5317C50.3037 79.4248 50.5599 79.3693 50.819 79.369H72.6174C73.1916 79.3685 73.7463 79.5777 74.1773 79.9571C74.6084 80.3366 74.8861 80.8604 74.9584 81.43L76.5063 93.504C76.5407 93.7621 76.5196 94.0245 76.4444 94.2738C76.3692 94.5231 76.2416 94.7534 76.0701 94.9493C75.8987 95.1453 75.6873 95.3024 75.4502 95.41C75.2131 95.5177 74.9558 95.5734 74.6954 95.5735Z" fill="#263238"/>
<path opacity="0.6" d="M74.6954 95.5735H52.8971C52.3231 95.5731 51.7689 95.3636 51.338 94.9843C50.9072 94.605 50.6292 94.0818 50.5561 93.5124L49.0081 81.4258C48.9757 81.1687 48.9982 80.9076 49.0744 80.6599C49.1505 80.4122 49.2784 80.1835 49.4497 79.989C49.6209 79.7944 49.8316 79.6386 50.0677 79.5317C50.3037 79.4248 50.5599 79.3693 50.819 79.369H72.6174C73.1916 79.3685 73.7463 79.5777 74.1773 79.9571C74.6084 80.3366 74.8861 80.8604 74.9584 81.43L76.5063 93.504C76.5407 93.7621 76.5196 94.0245 76.4444 94.2738C76.3692 94.5231 76.2416 94.7534 76.0701 94.9493C75.8987 95.1453 75.6873 95.3024 75.4502 95.41C75.2131 95.5177 74.9558 95.5734 74.6954 95.5735Z" fill="white"/>
<path d="M74.9032 153.971H78.9703L79.4707 132.478L79.6785 123.398H74.1993L74.4071 132.478L74.9032 153.971Z" fill="#263238"/>
<path opacity="0.4" d="M74.9032 153.971H78.9703L79.4707 132.478L79.6785 123.398H74.1993L74.4071 132.478L74.9032 153.971Z" fill="white"/>
<path opacity="0.2" d="M79.6785 123.398L79.4707 132.728H74.4071L74.1993 123.398H79.6785Z" fill="black"/>
<path d="M95.6668 153.971L93.8983 124.039H89.1358L91.6082 153.971H95.6668Z" fill="#263238"/>
<path opacity="0.5" d="M91.604 153.971H95.6626L94.1613 128.47L93.8983 123.979H89.1358L89.5047 128.47L91.604 153.971Z" fill="white"/>
<path opacity="0.2" d="M89.1358 123.979L89.5005 128.644H94.1613L93.8983 123.979H89.1358Z" fill="black"/>
<path d="M62.2653 153.971L64.742 124.039H59.9752L58.2067 153.971H62.2653Z" fill="#263238"/>
<path opacity="0.5" d="M62.2695 153.971L64.3688 128.47L64.7377 123.979H59.9752L59.7122 128.47L58.2109 153.971H62.2695Z" fill="white"/>
<path opacity="0.2" d="M64.7377 123.979L64.3688 128.644H59.7122L59.9752 123.979H64.7377Z" fill="black"/>
<path d="M59.5002 118.924H94.3691C94.9202 118.924 95.4488 119.143 95.8385 119.533C96.2282 119.922 96.4472 120.451 96.4472 121.002V125.744H57.4306V121.006C57.4295 120.456 57.6468 119.928 58.0348 119.537C58.4228 119.147 58.9498 118.926 59.5002 118.924Z" fill="#263238"/>
<path d="M97.4862 122.334H56.3874C55.9259 122.334 55.5519 122.708 55.5519 123.169V124.908C55.5519 125.369 55.9259 125.743 56.3874 125.743H97.4862C97.9476 125.743 98.3216 125.369 98.3216 124.908V123.169C98.3216 122.708 97.9476 122.334 97.4862 122.334Z" fill="#263238"/>
<path opacity="0.6" d="M97.4862 122.334H56.3874C55.9259 122.334 55.5519 122.708 55.5519 123.169V124.908C55.5519 125.369 55.9259 125.743 56.3874 125.743H97.4862C97.9476 125.743 98.3216 125.369 98.3216 124.908V123.169C98.3216 122.708 97.9476 122.334 97.4862 122.334Z" fill="white"/>
<path d="M98.5252 54.2118L97.8721 47.5832L103.682 47.9479C103.682 47.9479 104.789 52.5196 101.608 54.7334L98.5252 54.2118Z" fill="#EAB276"/>
<path d="M99.6787 43.2023L103.945 44.5085L103.682 47.9479L97.8721 47.5832L99.6787 43.2023Z" fill="#EAB276"/>
<path d="M87.5709 73.5971C87.5709 73.5971 94.632 66.5783 95.6287 63.7284C96.6253 60.8785 98.4319 53.8089 98.4319 53.8089L101.863 54.4959C101.863 54.4959 100.591 62.8717 99.8908 65.0982C99.191 67.3247 91.621 77.821 91.621 77.821L87.5709 73.5971Z" fill="#E8B276"/>
<path opacity="0.2" d="M92.3886 68.4062L96.0188 71.536L94.7253 73.4274L90.6668 70.3188L92.3886 68.4062Z" fill="black"/>
<path d="M95.7559 72.8973L90.5438 68.8854L90.4505 68.9575C90.4208 68.9787 90.3826 69.0126 90.336 69.0423C90.1833 69.161 89.9585 69.3349 89.6913 69.5597L89.4284 69.7717L89.3606 69.8311L89.0849 70.0686L88.7202 70.3952C88.0416 71.0016 84.4284 74.0296 83.8558 74.7676C83.7583 74.9033 83.6607 75.0305 83.5759 75.162C83.3944 75.4169 83.2369 75.6881 83.1052 75.972C83.0879 76.0147 83.0737 76.0586 83.0628 76.1034C83.0485 76.1315 83.0385 76.1615 83.0331 76.1925C83.0105 76.2527 82.9949 76.3153 82.9864 76.3791C82.9741 76.4252 82.9642 76.4719 82.9568 76.5191C82.9568 76.5572 82.9568 76.5911 82.9568 76.6336C82.9568 76.676 82.9568 76.7862 82.9313 76.871C82.9059 76.9559 82.9313 77.0449 82.9313 77.1425C82.9313 77.24 82.9313 77.3206 82.9313 77.4139C82.9313 77.4393 82.9313 77.4648 82.9313 77.4902C82.9313 77.5623 82.9313 77.6302 82.9313 77.698C82.9313 77.7659 82.9313 77.9016 82.961 78.0034C82.9907 78.1052 82.961 78.2069 82.9949 78.313C83.0288 78.419 83.0204 78.5293 83.0416 78.6353C83.5208 81.6039 88.1307 83.2197 89.4666 82.486C92.1468 81.0102 94.7593 75.2977 95.5438 73.4529C95.6753 73.1093 95.7559 72.8973 95.7559 72.8973Z" fill="#407BFF"/>
<path opacity="0.6" d="M82.8847 77.1849C82.8847 77.2697 82.8847 77.363 82.8847 77.4563C82.8805 77.4801 82.8805 77.5045 82.8847 77.5284C82.8847 77.6005 82.8847 77.6683 82.8847 77.7404C82.8847 77.8125 82.8847 77.9398 82.9144 78.0415C82.9441 78.1433 82.9144 78.2494 82.9483 78.3511C82.9822 78.4529 82.978 78.5632 82.9949 78.6734C83.3893 81.1417 86.6167 82.6684 88.4785 82.7023C88.8022 82.7225 89.1259 82.6613 89.42 82.5242C90.349 81.9387 91.1485 81.1695 91.7694 80.2638C91.8712 80.1323 91.9687 79.9966 92.0663 79.8609C93.412 77.8551 94.5623 75.7249 95.5014 73.4995L95.7389 72.9143L90.5268 68.9108L90.4335 68.9787L90.319 69.0635C90.1706 69.178 89.9458 69.3561 89.6786 69.5767L89.4157 69.7887C89.4157 69.8141 89.3733 69.8226 89.3521 69.8481C89.2588 69.9202 89.1697 69.9965 89.0722 70.0856L88.7117 70.4079C88.0289 71.0228 84.4157 74.0466 83.8431 74.7803C83.7456 74.9202 83.648 75.0432 83.5632 75.1832C83.3812 75.4363 83.2236 75.7061 83.0925 75.9889C83.0925 76.0356 83.0586 76.078 83.0458 76.1204C83.0349 76.1493 83.0263 76.1791 83.0204 76.2095C82.9994 76.2702 82.9838 76.3326 82.9737 76.3961C82.9737 76.4385 82.9737 76.4894 82.9441 76.536C82.9144 76.5827 82.9441 76.6081 82.9441 76.6505C82.9441 76.6929 82.9441 76.8032 82.9186 76.8923C82.8932 76.9813 82.8932 77.0661 82.8847 77.1849Z" fill="white"/>
<path d="M96.2012 72.6004L90.9509 68.0372L90.2003 68.5673L89.9373 68.7497L90.3105 69.0635L90.3487 69.0974L95.5141 73.4783L95.6541 73.5971L96.2012 72.6004Z" fill="#407BFF"/>
<path opacity="0.2" d="M88.4954 82.6981C88.8192 82.7183 89.1429 82.657 89.4369 82.52C90.3659 81.9345 91.1654 81.1652 91.7864 80.2596C90.9934 79.231 89.9787 78.3946 88.8177 77.8125C87.503 79.4156 87.9907 81.095 88.4954 82.6981Z" fill="black"/>
<path d="M108.462 115.141C104.183 109.497 87.7872 108.924 87.7872 108.924C87.7872 108.924 66.1584 118.572 78.4232 119.212C80.3486 119.314 83.4148 119.191 85.1663 119.276C94.5599 119.751 99.2462 120.319 100.654 122.334C101.905 124.136 97.554 150.485 97.554 150.485H101.358C101.358 150.485 112.385 120.332 108.462 115.141Z" fill="#EAB276"/>
<path d="M102.448 148.458L97.1936 148.131C97.1064 148.122 97.019 148.147 96.9506 148.202C96.8822 148.257 96.8384 148.337 96.8288 148.424L96.3114 152.567C96.3029 152.784 96.3777 152.996 96.5205 153.159C96.6632 153.322 96.8631 153.425 97.0791 153.445C98.9111 153.53 99.7932 153.479 102.105 153.602C103.525 153.687 106.32 153.992 108.279 153.801C110.239 153.611 109.997 151.681 109.153 151.588C107.147 151.359 104.488 149.891 103.237 148.768C103.015 148.58 102.738 148.471 102.448 148.458Z" fill="#263238"/>
<path d="M104.06 149.357C103.639 149.322 103.223 149.239 102.821 149.111C102.8 149.107 102.781 149.097 102.767 149.082C102.752 149.067 102.743 149.047 102.741 149.026C102.739 149.005 102.743 148.984 102.752 148.965C102.761 148.945 102.775 148.929 102.792 148.916C102.948 148.818 104.331 148 104.912 148.259C104.974 148.289 105.028 148.334 105.069 148.391C105.109 148.447 105.136 148.512 105.145 148.581C105.176 148.687 105.177 148.801 105.146 148.907C105.115 149.014 105.055 149.11 104.971 149.183C104.702 149.357 104.375 149.419 104.06 149.357ZM104.798 148.475C104.501 148.335 103.695 148.678 103.131 148.992C103.958 149.209 104.573 149.221 104.827 149.018C104.874 148.967 104.908 148.906 104.925 148.839C104.943 148.773 104.944 148.703 104.929 148.636C104.925 148.602 104.912 148.569 104.892 148.541C104.872 148.513 104.845 148.49 104.814 148.475H104.798Z" fill="#407BFF"/>
<path d="M102.842 149.115C102.835 149.118 102.827 149.12 102.819 149.12C102.811 149.12 102.803 149.118 102.796 149.115C102.781 149.105 102.768 149.092 102.759 149.077C102.749 149.061 102.743 149.044 102.741 149.026C102.741 148.984 102.741 147.618 103.22 147.186C103.286 147.132 103.362 147.094 103.444 147.073C103.526 147.053 103.612 147.051 103.695 147.067C103.788 147.076 103.875 147.115 103.943 147.179C104.012 147.242 104.057 147.327 104.072 147.419C104.144 147.936 103.385 148.874 102.902 149.115C102.893 149.119 102.882 149.122 102.872 149.122C102.862 149.122 102.852 149.119 102.842 149.115ZM103.602 147.296C103.558 147.292 103.514 147.297 103.473 147.312C103.432 147.326 103.395 147.35 103.364 147.381C103.063 147.631 102.982 148.403 102.965 148.844C103.39 148.526 103.882 147.813 103.852 147.474C103.852 147.406 103.809 147.33 103.657 147.3L103.602 147.296Z" fill="#407BFF"/>
<path d="M95.6414 122.334C92.6133 121.91 86.4258 120.9 81.6887 120.659L76.1755 120.387C63.9065 119.743 89.526 107.295 89.526 107.295C89.526 107.295 98.2199 108.169 104.636 110.735C101.303 113.941 98.135 119.713 95.6414 122.334Z" fill="#407BFF"/>
<path d="M64.2415 105.069C64.2415 105.069 58.8132 120.442 74.2162 120.442C89.6193 120.442 90.8449 114.441 89.5429 107.376L64.2415 105.069Z" fill="#407BFF"/>
<path d="M62.7657 108.076C62.7657 108.076 65.5817 87.397 67.5452 83.1519C69.5088 78.9067 72.6768 73.1093 86.4004 76.4682C86.4004 76.4682 91.604 77.9313 90.7177 84.3478C89.8313 90.7643 89.5344 107.406 89.5344 107.406L62.7657 108.076Z" fill="#407BFF"/>
<path opacity="0.6" d="M90.7134 84.3478C90.4505 86.235 90.2384 89.0128 90.073 91.9815C90.0391 92.6685 90.0009 93.3767 89.9628 94.0807C89.8864 95.7135 89.8186 97.359 89.7635 98.9069C89.7635 99.1741 89.7635 99.4455 89.7295 99.7084C89.5896 104.03 89.5302 107.414 89.5302 107.414L62.7657 108.08C62.7657 108.08 65.5817 87.3886 67.5452 83.1561C69.5088 78.9237 72.6768 73.1094 86.4004 76.4724C86.3919 76.4724 91.604 77.9313 90.7134 84.3478Z" fill="white"/>
<path d="M84.3096 80.3104L85.9 77.7362L88.084 80.3104C88.084 80.3104 87.4691 73.4783 79.5259 73.3214C78.6509 73.2609 77.7807 73.4925 77.0515 73.9799C76.3224 74.4673 75.7756 75.1828 75.497 76.0144C76.8922 78.2621 80.5861 80.7091 80.5861 80.7091L82.0534 78.4826L84.3096 80.3104Z" fill="#407BFF"/>
<path d="M78.1263 67.5325C78.3442 69.0859 78.4081 70.657 78.3172 72.223C78.2813 73.2748 78.0438 74.31 77.6174 75.2722C77.6174 75.2722 79.7379 77.3291 81.6548 77.7659L83.7752 79.335L83.6353 77.2146C83.6353 77.2146 83.6353 77.1043 83.6098 76.9135C83.559 76.0653 83.6099 73.4783 85.9805 72.5029C89.2164 71.1288 78.1263 67.5325 78.1263 67.5325Z" fill="#EAB276"/>
<path opacity="0.2" d="M78.1263 67.5325C78.3442 69.0859 78.4081 70.657 78.3172 72.223C79.6615 74.2247 81.3876 76.1416 83.6056 76.888C83.5547 76.0398 83.6056 73.4529 85.9763 72.4774C89.2164 71.1288 78.1263 67.5325 78.1263 67.5325Z" fill="black"/>
<path opacity="0.2" d="M90.073 91.973C90.0391 92.66 90.0009 93.3683 89.9628 94.0723C89.8864 95.705 89.8186 97.3505 89.7634 98.8984C89.7634 99.1656 89.7634 99.437 89.7295 99.7C72.2781 98.9027 69.5512 86.0102 69.5512 86.0102C69.5512 86.0102 74.0805 81.2816 76.6208 81.7948C79.1611 82.3079 84.9245 89.263 84.9245 89.263L84.6828 90.2257C85.3444 90.9509 88.576 91.6719 90.073 91.973Z" fill="black"/>
<path d="M100.051 81.7609L99.026 82.1567L103.702 94.2622L104.727 93.8665L100.051 81.7609Z" fill="#263238"/>
<path d="M104.649 89.9543L103.178 89.3351C102.905 89.2193 102.609 89.1705 102.314 89.1926C102.019 89.2147 101.733 89.3073 101.481 89.4624L99.0893 90.934C98.6188 91.2241 98.2247 91.6227 97.9399 92.0964C97.6551 92.5701 97.4879 93.1051 97.4523 93.6566L97.4056 94.3479C99.772 95.5439 103.216 95.0943 103.216 95.0943L104.208 95.0731C104.413 95.0754 104.615 95.0369 104.805 94.9601C104.995 94.8833 105.167 94.7695 105.312 94.6255C105.457 94.4815 105.572 94.3101 105.651 94.1212C105.729 93.9323 105.769 93.7297 105.769 93.5252V91.5531C105.758 91.2066 105.646 90.8707 105.447 90.5867C105.249 90.3027 104.971 90.0829 104.649 89.9543Z" fill="#EAB276"/>
<path d="M77.927 84.4411C77.927 84.4411 85.8067 91.9094 87.4776 91.8246L98.5931 91.2648L98.2199 94.4921C98.2665 94.4921 88.241 96.3199 85.5649 95.9849C82.8974 96.4599 74.1865 87.7066 74.1865 87.7066L77.927 84.4411Z" fill="#E8B276"/>
<path opacity="0.2" d="M82.1425 94.5515L84.81 90.3657L83.3045 89.1867L80.4249 93.2919L82.1425 94.5515Z" fill="black"/>
<path d="M71.8879 78.7455C75.7981 75.1365 83.7329 88.5887 83.7329 88.5887L78.9321 94.5048C78.9321 94.5048 63.4146 86.5616 71.8879 78.7455Z" fill="#407BFF"/>
<path opacity="0.6" d="M71.8879 78.7455C75.7981 75.1365 83.7329 88.5887 83.7329 88.5887L78.9321 94.5048C78.9321 94.5048 63.4146 86.5616 71.8879 78.7455Z" fill="white"/>
<path d="M77.927 94.772L83.7328 87.7066L84.81 89.2758L79.7888 95.9425L77.927 94.772Z" fill="#407BFF"/>
<path d="M86.3792 55.1829C86.3792 55.1829 89.7125 57.0744 89.1443 60.887C88.576 64.6996 82.3588 58.2152 82.3588 58.2152L86.3792 55.1829Z" fill="#263238"/>
<path d="M73.6055 65.1873C75.9465 69.7421 77.0491 72.5368 80.743 73.7879C86.3028 75.6878 91.8966 70.7471 91.1417 65.5223C90.4886 60.8149 86.7651 54.1694 80.7981 54.5171C74.8311 54.8649 71.273 60.6453 73.6055 65.1873Z" fill="#EAB276"/>
<path d="M82.6981 64.5936C82.8592 65.077 83.2536 65.3866 83.5717 65.2721C83.8898 65.1576 83.9958 64.6826 83.8431 64.1992C83.6904 63.7157 83.2833 63.4103 82.9652 63.5206C82.6472 63.6309 82.5496 64.1101 82.6981 64.5936Z" fill="#263238"/>
<path d="M87.3631 62.0872C87.5285 62.5706 87.9229 62.8802 88.2367 62.7657C88.5505 62.6512 88.6608 62.172 88.5081 61.6885C88.3554 61.2051 87.9526 60.904 87.6345 61.01C87.3164 61.116 87.2062 61.6037 87.3631 62.0872Z" fill="#263238"/>
<path d="M82.5793 60.747C82.603 60.6894 82.6104 60.6263 82.6005 60.5647C82.5735 60.489 82.5182 60.4268 82.4462 60.3912C82.3742 60.3556 82.2911 60.3494 82.2146 60.3738C81.7567 60.5098 81.3388 60.7554 80.9974 61.0895C80.656 61.4235 80.4012 61.8359 80.2553 62.2907C80.2451 62.3286 80.2425 62.3681 80.2476 62.407C80.2527 62.4459 80.2655 62.4834 80.2853 62.5173C80.305 62.5512 80.3312 62.5809 80.3625 62.6046C80.3937 62.6283 80.4294 62.6456 80.4673 62.6555C80.5443 62.674 80.6254 62.6623 80.694 62.6229C80.7626 62.5834 80.8136 62.5192 80.8363 62.4434C80.9614 62.0836 81.1718 61.7595 81.4495 61.4988C81.7272 61.2381 82.0639 61.0486 82.4309 60.9464C82.4676 60.9246 82.4996 60.8958 82.5251 60.8616C82.5506 60.8274 82.569 60.7884 82.5793 60.747Z" fill="#263238"/>
<path d="M88.4827 58.4485C88.5363 58.4165 88.5791 58.3692 88.6057 58.3128C88.6298 58.2363 88.6229 58.1533 88.5863 58.0819C88.5498 58.0105 88.4867 57.9563 88.4106 57.9311C87.9598 57.7737 87.4777 57.7274 87.0052 57.796C86.5327 57.8647 86.0837 58.0463 85.6964 58.3255C85.6649 58.3499 85.6387 58.3803 85.6192 58.4151C85.5998 58.4498 85.5875 58.4881 85.5832 58.5276C85.5788 58.5672 85.5825 58.6072 85.5939 58.6454C85.6054 58.6835 85.6243 58.7189 85.6497 58.7496C85.7015 58.8094 85.774 58.8474 85.8526 58.856C85.9313 58.8647 86.0103 58.8433 86.0738 58.7962C86.3869 58.5789 86.748 58.4406 87.1261 58.3934C87.5043 58.3461 87.8883 58.3912 88.2452 58.5248C88.2879 58.5295 88.3312 58.5251 88.3721 58.512C88.413 58.4988 88.4507 58.4772 88.4827 58.4485Z" fill="#263238"/>
<path d="M86.6718 63.8048L88.4573 64.4112C88.4573 64.4112 88.2876 65.111 86.9941 65.7217L86.6718 63.8048Z" fill="#D48645"/>
<path d="M72.0194 61.9684C72.0194 61.9684 69.636 59.1397 72.698 56.6461C74.0678 55.5349 77.2273 50.3186 77.2273 50.3186C77.8029 50.7076 78.2127 51.2974 78.3766 51.9726C79.5951 50.9613 80.7219 49.8444 81.7439 48.635C81.7439 48.635 85.4589 50.959 85.5861 52.6087L87.9441 50.5434C87.9441 50.5434 87.7193 56.7182 84.6446 57.7063C81.57 58.6944 78.385 58.3255 79.4368 62.5155C80.4885 66.7055 78.2875 68.1517 78.2875 68.1517L78.1221 72.3248C78.1221 72.3248 74.3053 71.9643 72.3969 67.7531C70.4884 63.5418 72.0194 61.9684 72.0194 61.9684Z" fill="#263238"/>
<path d="M78.8558 66.7564C78.8558 66.7564 76.8286 64.4197 75.7005 65.7174C74.5725 67.0151 76.29 71.4469 78.3681 70.7853C80.4461 70.1237 80.2595 67.9142 78.8558 66.7564Z" fill="#EAB276"/>
<path d="M87.9738 67.1805C87.8317 67.8798 87.741 68.5885 87.7024 69.301L87.3249 69.3392C85.6286 69.5046 84.7804 69.0169 84.3563 68.4231C84.0499 67.956 83.9164 67.3964 83.9788 66.8413C84.9373 67.295 86.5234 67.2654 87.397 67.2145C87.749 67.2102 87.9738 67.1805 87.9738 67.1805Z" fill="#263238"/>
<path d="M87.3885 67.2272L87.291 67.8548C85.6837 68.0033 84.5302 67.893 83.9788 67.4562C83.9506 67.2564 83.9506 67.0537 83.9788 66.854C84.9288 67.3078 86.5149 67.2781 87.3885 67.2272Z" fill="white"/>
<path d="M87.3249 69.3519C85.6286 69.5173 84.7804 69.0296 84.3563 68.4358C85.0074 68.3858 85.6622 68.4519 86.2901 68.6309C86.7013 68.7585 87.0628 69.0104 87.3249 69.3519Z" fill="#DD5753"/>
<path opacity="0.2" d="M85.8788 108.924L95.6329 111.519L94.5133 112.745C94.5133 112.745 95.3615 113.063 96.8119 115.629C98.2623 118.195 97.6007 119.772 97.6007 119.772L95.6329 122.317L86.1883 121.168L85.8788 108.924Z" fill="black"/>
<path d="M95.1876 117.084C92.7915 113.92 85.3486 111.032 80.3443 110.23L74.9329 119.492C82.4945 119.802 87.0281 121.634 87.2019 122.334C88.0119 125.688 82.3376 150.485 82.3376 150.485H86.939C86.939 150.485 99.4667 122.728 95.1876 117.084Z" fill="#EAB276"/>
<path d="M83.4148 123.161C78.8272 122.422 74.3019 121.337 69.8777 119.916C68.703 119.531 67.6512 115.502 67.9396 113.504C68.9405 106.49 83.8007 107.72 83.8007 107.72C87.106 109.193 90.3168 110.87 93.4149 112.741C90.4759 116.201 86.1544 119.67 83.4148 123.161Z" fill="#407BFF"/>
<path d="M87.855 148.458L82.6048 148.131C82.5171 148.122 82.4293 148.147 82.3602 148.202C82.2911 148.257 82.2464 148.336 82.2358 148.424L81.7226 152.567C81.7075 152.785 81.7794 153 81.9226 153.164C82.0657 153.329 82.2684 153.43 82.486 153.445C84.3223 153.53 85.2002 153.479 87.5158 153.602C88.9322 153.687 91.7312 153.992 93.6863 153.801C95.6414 153.611 95.4039 151.681 94.5599 151.588C92.554 151.359 89.8949 149.891 88.6438 148.768C88.4223 148.58 88.1449 148.471 87.855 148.458Z" fill="#263238"/>
<path d="M89.4835 149.357C89.0628 149.322 88.6474 149.239 88.2452 149.111C88.2249 149.107 88.2064 149.097 88.1925 149.082C88.1787 149.066 88.1704 149.047 88.1689 149.026C88.1666 149.005 88.1697 148.984 88.1779 148.965C88.186 148.946 88.199 148.929 88.2155 148.916C88.3724 148.818 89.755 148 90.3148 148.259C90.377 148.289 90.4309 148.334 90.4715 148.391C90.5122 148.447 90.5385 148.512 90.548 148.581C90.5791 148.687 90.5797 148.8 90.5497 148.906C90.5197 149.013 90.4603 149.109 90.3784 149.183C90.1118 149.35 89.7931 149.412 89.4835 149.357ZM90.2215 148.475C89.9246 148.335 89.1231 148.678 88.5548 148.992C89.3818 149.209 90.0009 149.221 90.2512 149.018C90.3002 148.969 90.3354 148.908 90.3533 148.841C90.3711 148.774 90.371 148.703 90.3529 148.636C90.3495 148.602 90.3371 148.569 90.3171 148.54C90.297 148.512 90.2699 148.489 90.2384 148.475H90.2215Z" fill="#407BFF"/>
<path d="M88.2494 149.115C88.2428 149.118 88.2355 149.12 88.2282 149.12C88.2209 149.12 88.2137 149.118 88.207 149.115C88.1914 149.106 88.1783 149.093 88.1687 149.077C88.1591 149.062 88.1533 149.044 88.1519 149.026C88.1519 148.984 88.1307 147.618 88.6269 147.186C88.6925 147.132 88.7691 147.094 88.8511 147.073C88.9332 147.053 89.0188 147.051 89.1019 147.067C89.1947 147.076 89.2821 147.115 89.3503 147.179C89.4185 147.243 89.4639 147.327 89.4793 147.419C89.5514 147.936 88.7923 148.874 88.3088 149.115C88.2994 149.119 88.2893 149.121 88.2791 149.121C88.2689 149.121 88.2588 149.119 88.2494 149.115ZM89.0128 147.296C88.9687 147.291 88.9242 147.297 88.8825 147.311C88.8407 147.326 88.8026 147.35 88.7711 147.381C88.47 147.631 88.3894 148.403 88.3767 148.844C88.8008 148.526 89.2885 147.813 89.2588 147.474C89.2588 147.406 89.2206 147.33 89.0637 147.3L89.0128 147.296Z" fill="#407BFF"/>
<path d="M113.852 94.0765C112.414 94.0298 108.826 94.2928 108.826 94.2928L107.164 93.6779C107.164 93.6779 98.7754 94.9841 97.8339 94.9247C96.8925 94.8653 94.3182 95.8619 94.3182 95.8619L112.83 96.6931L113.852 94.0765Z" fill="#407BFF"/>
<path opacity="0.9" d="M113.852 94.0765C112.414 94.0298 108.826 94.2928 108.826 94.2928L107.164 93.6779C107.164 93.6779 98.7754 94.9841 97.8339 94.9247C96.8925 94.8653 94.3182 95.8619 94.3182 95.8619L112.83 96.6931L113.852 94.0765Z" fill="white"/>
<path d="M117.898 95.845C117.898 95.845 114.666 92.7788 111.664 94.683C111.664 94.683 107.647 92.3844 103.534 94.683L98.0545 95.6499L117.898 95.845Z" fill="#407BFF"/>
<path opacity="0.7" d="M117.898 95.845C117.898 95.845 114.666 92.7788 111.664 94.683C111.664 94.683 107.647 92.3844 103.534 94.683L98.0545 95.6499L117.898 95.845Z" fill="white"/>
<path d="M90.1748 153.674H88.118L87.2189 99.2801H91.0739L90.1748 153.674Z" fill="#407BFF"/>
<path opacity="0.7" d="M90.1748 153.674H88.118L87.2189 99.2801H91.0739L90.1748 153.674Z" fill="white"/>
<path d="M112.86 153.674H110.803L109.904 99.2801H113.759L112.86 153.674Z" fill="#407BFF"/>
<path opacity="0.4" d="M112.86 153.674H110.803L109.904 99.2801H113.759L112.86 153.674Z" fill="white"/>
<path d="M127.928 98.3683H89.1443V111.163H127.928V98.3683Z" fill="#407BFF"/>
<path opacity="0.3" d="M127.928 98.3683H89.1443V111.163H127.928V98.3683Z" fill="white"/>
<path d="M150.672 98.3683H127.928V111.163H150.672V98.3683Z" fill="#407BFF"/>
<path opacity="0.5" d="M150.672 98.3683H127.928V111.163H150.672V98.3683Z" fill="white"/>
<path d="M151.643 153.674H149.59L148.687 99.2801H152.546L151.643 153.674Z" fill="#407BFF"/>
<path opacity="0.4" d="M151.643 153.674H149.59L148.687 99.2801H152.546L151.643 153.674Z" fill="white"/>
<path d="M153.772 95.6329H123.462C122.841 95.6329 122.338 96.1361 122.338 96.7568V98.1563C122.338 98.777 122.841 99.2801 123.462 99.2801H153.772C154.392 99.2801 154.896 98.777 154.896 98.1563V96.7568C154.896 96.1361 154.392 95.6329 153.772 95.6329Z" fill="#263238"/>
<path opacity="0.4" d="M153.772 95.6329H123.462C122.841 95.6329 122.338 96.1361 122.338 96.7568V98.1563C122.338 98.777 122.841 99.2801 123.462 99.2801H153.772C154.392 99.2801 154.896 98.777 154.896 98.1563V96.7568C154.896 96.1361 154.392 95.6329 153.772 95.6329Z" fill="white"/>
<path d="M126.282 95.6329H85.1451C84.5244 95.6329 84.0213 96.1361 84.0213 96.7568V98.1563C84.0213 98.777 84.5244 99.2801 85.1451 99.2801H126.282C126.903 99.2801 127.406 98.777 127.406 98.1563V96.7568C127.406 96.1361 126.903 95.6329 126.282 95.6329Z" fill="#263238"/>
<path opacity="0.3" d="M126.282 95.6329H85.1451C84.5244 95.6329 84.0213 96.1361 84.0213 96.7568V98.1563C84.0213 98.777 84.5244 99.2801 85.1451 99.2801H126.282C126.903 99.2801 127.406 98.777 127.406 98.1563V96.7568C127.406 96.1361 126.903 95.6329 126.282 95.6329Z" fill="white"/>
<path d="M128.958 153.674H126.901L126.002 99.2801H129.857L128.958 153.674Z" fill="#407BFF"/>
<path opacity="0.7" d="M128.958 153.674H126.901L126.002 99.2801H129.857L128.958 153.674Z" fill="white"/>
</svg>
