<svg width="245" height="260" viewBox="0 0 245 260" fill="none" xmlns="http://www.w3.org/2000/svg">
<path d="M215 126C215 181.228 170.228 226 115 226C59.7715 226 15 181.228 15 126C15 70.7715 59.7715 26 115 26C170.228 26 215 70.7715 215 126ZM20 126C20 178.467 62.5329 221 115 221C167.467 221 210 178.467 210 126C210 73.5329 167.467 31 115 31C62.5329 31 20 73.5329 20 126Z" fill="white"/>
<g filter="url(#filter0_d_332_1383)">
<path d="M115 28.5C115 27.1193 116.12 25.9967 117.5 26.0312C134.063 26.4454 150.277 30.9692 164.679 39.2129C179.804 47.871 192.404 60.3317 201.23 75.3599C210.055 90.3882 214.8 107.462 214.994 124.889C215.187 142.316 210.823 159.491 202.334 174.712C193.844 189.932 181.524 202.67 166.595 211.662C151.666 220.654 134.646 225.588 117.222 225.975C99.798 226.363 82.5756 222.189 67.2616 213.869C52.6805 205.948 40.3117 194.529 31.2567 180.654C30.5021 179.498 30.8689 177.955 32.0437 177.23C33.2184 176.504 34.7562 176.871 35.5123 178.026C44.1084 191.16 55.8331 201.97 69.6485 209.476C84.1968 217.38 100.558 221.344 117.111 220.977C133.663 220.609 149.832 215.921 164.015 207.379C178.198 198.836 189.902 186.736 197.967 172.276C206.032 157.817 210.178 141.5 209.994 124.945C209.81 108.389 205.303 92.1688 196.918 77.8919C188.534 63.6151 176.564 51.7774 162.195 43.5522C148.55 35.7414 133.191 31.4459 117.5 31.0329C116.12 30.9966 115 29.8807 115 28.5Z" fill="#396BCB"/>
</g>
<path d="M200 126C200 172.944 161.944 211 115 211C68.0558 211 30 172.944 30 126C30 79.0558 68.0558 41 115 41C161.944 41 200 79.0558 200 126ZM35.1 126C35.1 170.128 70.8724 205.9 115 205.9C159.128 205.9 194.9 170.128 194.9 126C194.9 81.8724 159.128 46.1 115 46.1C70.8724 46.1 35.1 81.8724 35.1 126Z" fill="white"/>
<g filter="url(#filter1_d_332_1383)">
<path d="M115 43.55C115 42.1417 116.142 40.996 117.55 41.0382C129.314 41.3913 140.887 44.1841 151.531 49.2503C162.943 54.6821 173 62.5904 180.97 72.3996C188.94 82.2087 194.622 93.6717 197.602 105.954C200.583 118.236 200.787 131.029 198.2 143.4C195.613 155.771 190.299 167.409 182.647 177.468C174.994 187.526 165.194 195.752 153.961 201.545C142.728 207.338 130.345 210.553 117.712 210.957C105.93 211.333 94.2084 209.254 83.2886 204.863C81.9819 204.338 81.3948 202.83 81.9591 201.54C82.5235 200.25 84.0257 199.665 85.3333 200.188C95.5575 204.277 106.526 206.211 117.55 205.859C129.424 205.48 141.065 202.458 151.623 197.012C162.182 191.567 171.394 183.835 178.588 174.38C185.781 164.925 190.776 153.985 193.208 142.356C195.64 130.727 195.448 118.702 192.646 107.157C189.844 95.6114 184.503 84.8362 177.011 75.6156C169.52 66.395 160.066 58.9611 149.339 53.8553C139.38 49.115 128.555 46.492 117.55 46.1407C116.142 46.0957 115 44.9583 115 43.55Z" fill="#CC4FCE"/>
</g>
<path d="M92.488 110V95.084H86.74V92.72H100.744V95.084H94.996V110H92.488ZM106.371 110.36C105.075 110.36 103.951 110.068 102.999 109.484C102.047 108.9 101.311 108.096 100.791 107.072C100.279 106.04 100.023 104.852 100.023 103.508C100.023 102.156 100.287 100.968 100.815 99.944C101.343 98.912 102.083 98.112 103.035 97.544C103.987 96.968 105.099 96.68 106.371 96.68C107.667 96.68 108.791 96.972 109.743 97.556C110.695 98.14 111.431 98.944 111.951 99.968C112.471 100.992 112.731 102.172 112.731 103.508C112.731 104.86 112.467 106.052 111.939 107.084C111.419 108.108 110.683 108.912 109.731 109.496C108.779 110.072 107.659 110.36 106.371 110.36ZM106.371 107.996C107.611 107.996 108.535 107.58 109.143 106.748C109.759 105.908 110.067 104.828 110.067 103.508C110.067 102.156 109.755 101.076 109.131 100.268C108.515 99.452 107.595 99.044 106.371 99.044C105.531 99.044 104.839 99.236 104.295 99.62C103.751 99.996 103.347 100.52 103.083 101.192C102.819 101.856 102.687 102.628 102.687 103.508C102.687 104.868 102.999 105.956 103.623 106.772C104.247 107.588 105.163 107.996 106.371 107.996ZM122.784 110C121.968 110.16 121.168 110.228 120.384 110.204C119.6 110.18 118.9 110.028 118.284 109.748C117.668 109.468 117.204 109.028 116.892 108.428C116.612 107.892 116.46 107.348 116.436 106.796C116.42 106.236 116.412 105.604 116.412 104.9V93.44H118.932V104.78C118.932 105.3 118.936 105.752 118.944 106.136C118.96 106.52 119.044 106.844 119.196 107.108C119.484 107.604 119.94 107.888 120.564 107.96C121.196 108.024 121.936 107.996 122.784 107.876V110ZM113.928 99.056V97.04H122.784V99.056H113.928ZM129.176 110.36C128.216 110.36 127.412 110.184 126.764 109.832C126.116 109.472 125.624 109 125.288 108.416C124.96 107.824 124.796 107.176 124.796 106.472C124.796 105.816 124.912 105.24 125.144 104.744C125.376 104.248 125.72 103.828 126.176 103.484C126.632 103.132 127.192 102.848 127.856 102.632C128.432 102.464 129.084 102.316 129.812 102.188C130.54 102.06 131.304 101.94 132.104 101.828C132.912 101.716 133.712 101.604 134.504 101.492L133.592 101.996C133.608 100.98 133.392 100.228 132.944 99.74C132.504 99.244 131.744 98.996 130.664 98.996C129.984 98.996 129.36 99.156 128.792 99.476C128.224 99.788 127.828 100.308 127.604 101.036L125.264 100.316C125.584 99.204 126.192 98.32 127.088 97.664C127.992 97.008 129.192 96.68 130.688 96.68C131.848 96.68 132.856 96.88 133.712 97.28C134.576 97.672 135.208 98.296 135.608 99.152C135.816 99.576 135.944 100.024 135.992 100.496C136.04 100.968 136.064 101.476 136.064 102.02V110H133.844V107.036L134.276 107.42C133.74 108.412 133.056 109.152 132.224 109.64C131.4 110.12 130.384 110.36 129.176 110.36ZM129.62 108.308C130.332 108.308 130.944 108.184 131.456 107.936C131.968 107.68 132.38 107.356 132.692 106.964C133.004 106.572 133.208 106.164 133.304 105.74C133.44 105.356 133.516 104.924 133.532 104.444C133.556 103.964 133.568 103.58 133.568 103.292L134.384 103.592C133.592 103.712 132.872 103.82 132.224 103.916C131.576 104.012 130.988 104.108 130.46 104.204C129.94 104.292 129.476 104.4 129.068 104.528C128.724 104.648 128.416 104.792 128.144 104.96C127.88 105.128 127.668 105.332 127.508 105.572C127.356 105.812 127.28 106.104 127.28 106.448C127.28 106.784 127.364 107.096 127.532 107.384C127.7 107.664 127.956 107.888 128.3 108.056C128.644 108.224 129.084 108.308 129.62 108.308ZM139.42 110V92.36H141.928V110H139.42Z" fill="black"/>
<path d="M68.5 158.97V155.82L77.74 147.585C78.46 146.945 78.96 146.34 79.24 145.77C79.52 145.2 79.66 144.65 79.66 144.12C79.66 143.4 79.505 142.76 79.195 142.2C78.885 141.63 78.455 141.18 77.905 140.85C77.365 140.52 76.74 140.355 76.03 140.355C75.28 140.355 74.615 140.53 74.035 140.88C73.465 141.22 73.02 141.675 72.7 142.245C72.38 142.815 72.23 143.43 72.25 144.09H68.53C68.53 142.65 68.85 141.395 69.49 140.325C70.14 139.255 71.03 138.425 72.16 137.835C73.3 137.245 74.615 136.95 76.105 136.95C77.485 136.95 78.725 137.26 79.825 137.88C80.925 138.49 81.79 139.34 82.42 140.43C83.05 141.51 83.365 142.755 83.365 144.165C83.365 145.195 83.225 146.06 82.945 146.76C82.665 147.46 82.245 148.105 81.685 148.695C81.135 149.285 80.45 149.94 79.63 150.66L73.075 156.465L72.745 155.565H83.365V158.97H68.5ZM93.1511 159.405C92.0711 159.405 91.0511 159.195 90.0911 158.775C89.1311 158.355 88.2961 157.76 87.5861 156.99C86.8861 156.22 86.3811 155.31 86.0711 154.26L89.5661 153.315C89.8161 154.175 90.2711 154.84 90.9311 155.31C91.6011 155.77 92.3361 155.995 93.1361 155.985C93.8461 155.985 94.4811 155.82 95.0411 155.49C95.6011 155.16 96.0411 154.715 96.3611 154.155C96.6811 153.585 96.8411 152.95 96.8411 152.25C96.8411 151.18 96.4961 150.285 95.8061 149.565C95.1161 148.845 94.2261 148.485 93.1361 148.485C92.8061 148.485 92.4811 148.53 92.1611 148.62C91.8511 148.71 91.5511 148.835 91.2611 148.995L89.6111 146.145L96.8711 139.935L97.1861 140.805H86.9111V137.4H100.156V140.82L94.3211 146.43L94.2911 145.365C95.6011 145.455 96.7161 145.82 97.6361 146.46C98.5661 147.1 99.2761 147.925 99.7661 148.935C100.266 149.945 100.516 151.05 100.516 152.25C100.516 153.61 100.181 154.83 99.5111 155.91C98.8511 156.99 97.9611 157.845 96.8411 158.475C95.7311 159.095 94.5011 159.405 93.1511 159.405ZM105.003 159V155.295H108.708V159H105.003ZM119.919 159.45C118.819 159.45 117.794 159.225 116.844 158.775C115.894 158.315 115.074 157.685 114.384 156.885C113.704 156.085 113.214 155.155 112.914 154.095L116.394 153.165C116.534 153.745 116.789 154.245 117.159 154.665C117.539 155.085 117.979 155.41 118.479 155.64C118.989 155.87 119.514 155.985 120.054 155.985C120.754 155.985 121.394 155.815 121.974 155.475C122.554 155.135 123.014 154.68 123.354 154.11C123.694 153.53 123.864 152.89 123.864 152.19C123.864 151.49 123.689 150.855 123.339 150.285C122.999 149.705 122.539 149.25 121.959 148.92C121.379 148.58 120.744 148.41 120.054 148.41C119.224 148.41 118.534 148.56 117.984 148.86C117.444 149.16 117.029 149.48 116.739 149.82L113.649 148.83L114.309 137.4H126.039V140.79H116.244L117.594 139.515L117.114 147.465L116.454 146.655C117.014 146.145 117.664 145.765 118.404 145.515C119.144 145.265 119.859 145.14 120.549 145.14C121.899 145.14 123.094 145.45 124.134 146.07C125.184 146.68 126.004 147.515 126.594 148.575C127.194 149.635 127.494 150.84 127.494 152.19C127.494 153.54 127.144 154.765 126.444 155.865C125.744 156.955 124.819 157.825 123.669 158.475C122.529 159.125 121.279 159.45 119.919 159.45ZM140.062 159V155.43H130.492V152.055L137.407 137.4H141.532L134.617 152.055H140.062V146.43H143.722V152.055H145.747V155.43H143.722V159H140.062ZM150.439 159L157.879 140.82H148.444V137.4H161.749V140.82L154.339 159H150.439Z" fill="black"/>
<defs>
<filter id="filter0_d_332_1383" x="0.863037" y="0.0304718" width="244.137" height="259.97" filterUnits="userSpaceOnUse" color-interpolation-filters="sRGB">
<feFlood flood-opacity="0" result="BackgroundImageFix"/>
<feColorMatrix in="SourceAlpha" type="matrix" values="0 0 0 0 0 0 0 0 0 0 0 0 0 0 0 0 0 0 127 0" result="hardAlpha"/>
<feOffset dy="4"/>
<feGaussianBlur stdDeviation="15"/>
<feComposite in2="hardAlpha" operator="out"/>
<feColorMatrix type="matrix" values="0 0 0 0 0.223529 0 0 0 0 0.419608 0 0 0 0 0.796078 0 0 0 0.4 0"/>
<feBlend mode="normal" in2="BackgroundImageFix" result="effect1_dropShadow_332_1383"/>
<feBlend mode="normal" in="SourceGraphic" in2="effect1_dropShadow_332_1383" result="shape"/>
</filter>
<filter id="filter1_d_332_1383" x="77.7448" y="41.0371" width="126.255" height="177.963" filterUnits="userSpaceOnUse" color-interpolation-filters="sRGB">
<feFlood flood-opacity="0" result="BackgroundImageFix"/>
<feColorMatrix in="SourceAlpha" type="matrix" values="0 0 0 0 0 0 0 0 0 0 0 0 0 0 0 0 0 0 127 0" result="hardAlpha"/>
<feOffset dy="4"/>
<feGaussianBlur stdDeviation="2"/>
<feComposite in2="hardAlpha" operator="out"/>
<feColorMatrix type="matrix" values="0 0 0 0 0.8 0 0 0 0 0.309804 0 0 0 0 0.807843 0 0 0 0.4 0"/>
<feBlend mode="normal" in2="BackgroundImageFix" result="effect1_dropShadow_332_1383"/>
<feBlend mode="normal" in="SourceGraphic" in2="effect1_dropShadow_332_1383" result="shape"/>
</filter>
</defs>
</svg>
