<svg width="20" height="21" viewBox="0 0 20 21" fill="none" xmlns="http://www.w3.org/2000/svg">
<path d="M3.85 15.6C4.7 14.95 5.65 14.4373 6.7 14.062C7.75 13.6867 8.85 13.4993 10 13.5C11.15 13.5 12.25 13.6877 13.3 14.063C14.35 14.4383 15.3 14.9507 16.15 15.6C16.7333 14.9167 17.1877 14.1417 17.513 13.275C17.8383 12.4083 18.0007 11.4833 18 10.5C18 8.28333 17.221 6.39567 15.663 4.837C14.105 3.27833 12.2173 2.49933 10 2.5C7.78333 2.5 5.89567 3.279 4.337 4.837C2.77833 6.395 1.99933 8.28267 2 10.5C2 11.4833 2.16267 12.4083 2.488 13.275C2.81333 14.1417 3.26733 14.9167 3.85 15.6ZM10 11.5C9.01667 11.5 8.18733 11.1627 7.512 10.488C6.83667 9.81333 6.49933 8.984 6.5 8C6.5 7.01667 6.83733 6.18733 7.512 5.512C8.18667 4.83667 9.016 4.49933 10 4.5C10.9833 4.5 11.8127 4.83733 12.488 5.512C13.1633 6.18667 13.5007 7.016 13.5 8C13.5 8.98333 13.1627 9.81267 12.488 10.488C11.8133 11.1633 10.984 11.5007 10 11.5ZM10 20.5C8.61667 20.5 7.31667 20.2373 6.1 19.712C4.88333 19.1867 3.825 18.4743 2.925 17.575C2.025 16.675 1.31267 15.6167 0.788 14.4C0.263333 13.1833 0.000666667 11.8833 0 10.5C0 9.11667 0.262667 7.81667 0.788 6.6C1.31333 5.38333 2.02567 4.325 2.925 3.425C3.825 2.525 4.88333 1.81267 6.1 1.288C7.31667 0.763333 8.61667 0.500667 10 0.5C11.3833 0.5 12.6833 0.762667 13.9 1.288C15.1167 1.81333 16.175 2.52567 17.075 3.425C17.975 4.325 18.6877 5.38333 19.213 6.6C19.7383 7.81667 20.0007 9.11667 20 10.5C20 11.8833 19.7373 13.1833 19.212 14.4C18.6867 15.6167 17.9743 16.675 17.075 17.575C16.175 18.475 15.1167 19.1877 13.9 19.713C12.6833 20.2383 11.3833 20.5007 10 20.5ZM10 18.5C10.8833 18.5 11.7167 18.3707 12.5 18.112C13.2833 17.8533 14 17.4827 14.65 17C14 16.5167 13.2833 16.1457 12.5 15.887C11.7167 15.6283 10.8833 15.4993 10 15.5C9.11667 15.5 8.28333 15.6293 7.5 15.888C6.71667 16.1467 6 16.5173 5.35 17C6 17.4833 6.71667 17.8543 7.5 18.113C8.28333 18.3717 9.11667 18.5007 10 18.5ZM10 9.5C10.4333 9.5 10.7917 9.35833 11.075 9.075C11.3583 8.79167 11.5 8.43333 11.5 8C11.5 7.56667 11.3583 7.20833 11.075 6.925C10.7917 6.64167 10.4333 6.5 10 6.5C9.56667 6.5 9.20833 6.64167 8.925 6.925C8.64167 7.20833 8.5 7.56667 8.5 8C8.5 8.43333 8.64167 8.79167 8.925 9.075C9.20833 9.35833 9.56667 9.5 10 9.5Z" fill="white"/>
</svg>
