<svg width="116" height="100" viewBox="0 0 116 100" fill="none" xmlns="http://www.w3.org/2000/svg">
<g filter="url(#filter0_d_331_223)">
<path d="M105.6 91H86.6V82.3L75.3 91.2C73.9667 91.7333 72.3 92 70.3 92C64.5667 92 60.4 90.5667 57.8 87.7C55.2667 84.8333 54 81.4 54 77.4C54 75 54.8667 72.6333 56.6 70.3C58.3333 67.9667 60.8 65.7667 64 63.7H86.6V57.3C86.6 52.9667 85.4333 49.9 83.1 48.1C80.8333 46.3 77.7 45.4 73.7 45.4C69.5667 45.4 64.5 47.9 58.5 52.9L55.5 49.1L69.9 37.7C72.5667 37.1667 75.7667 36.9 79.5 36.9C85.5667 36.9 90.2667 38.4 93.6 41.4C96.9333 44.3333 98.6 48.6333 98.6 54.3V83.5L107.6 87L105.6 91ZM73.5 83.5C77.5667 83.5 81.9333 81.6333 86.6 77.9V67.8H68.9C68.0333 68.8667 67.4 69.9333 67 71C66.6667 72.0667 66.5 73.2333 66.5 74.5C66.5 76.9667 67.1333 79.1 68.4 80.9C69.6667 82.6333 71.3667 83.5 73.5 83.5Z" fill="black"/>
</g>
<g filter="url(#filter1_d_331_223)">
<path d="M63.4171 90.3763C56.4203 93.6233 48.6178 94.7225 40.9963 93.5351C33.3748 92.3477 26.2765 88.9269 20.5991 83.7053C14.9218 78.4837 10.9203 71.6958 9.10067 64.2001C7.28107 56.7043 7.72509 48.8373 10.3766 41.5938C13.0281 34.3504 17.7679 28.0559 23.9968 23.5063C30.2257 18.9567 37.6638 16.3563 45.3705 16.0341C53.0773 15.7118 60.7065 17.682 67.2935 21.6957C73.8804 25.7094 79.1293 31.5862 82.3763 38.5829L78.8386 40.2246C75.9163 33.9276 71.1924 28.6384 65.2641 25.0261C59.3358 21.4138 52.4695 19.6406 45.5335 19.9307C38.5974 20.2207 31.9031 22.561 26.2971 26.6557C20.6912 30.7503 16.4253 36.4154 14.0389 42.9344C11.6526 49.4535 11.253 56.5338 12.8906 63.28C14.5282 70.0262 18.1296 76.1353 23.2392 80.8348C28.3489 85.5342 34.7373 88.6129 41.5967 89.6816C48.456 90.7503 55.4783 89.7609 61.7754 86.8386L63.4171 90.3763Z" fill="black"/>
</g>
<defs>
<filter id="filter0_d_331_223" x="46" y="36.9" width="69.6" height="71.1" filterUnits="userSpaceOnUse" color-interpolation-filters="sRGB">
<feFlood flood-opacity="0" result="BackgroundImageFix"/>
<feColorMatrix in="SourceAlpha" type="matrix" values="0 0 0 0 0 0 0 0 0 0 0 0 0 0 0 0 0 0 127 0" result="hardAlpha"/>
<feOffset dy="8"/>
<feGaussianBlur stdDeviation="4"/>
<feComposite in2="hardAlpha" operator="out"/>
<feColorMatrix type="matrix" values="0 0 0 0 0 0 0 0 0 0 0 0 0 0 0 0 0 0 0.3 0"/>
<feBlend mode="normal" in2="BackgroundImageFix" result="effect1_dropShadow_331_223"/>
<feBlend mode="normal" in="SourceGraphic" in2="effect1_dropShadow_331_223" result="shape"/>
</filter>
<filter id="filter1_d_331_223" x="0" y="16" width="90.3763" height="94" filterUnits="userSpaceOnUse" color-interpolation-filters="sRGB">
<feFlood flood-opacity="0" result="BackgroundImageFix"/>
<feColorMatrix in="SourceAlpha" type="matrix" values="0 0 0 0 0 0 0 0 0 0 0 0 0 0 0 0 0 0 127 0" result="hardAlpha"/>
<feOffset dy="8"/>
<feGaussianBlur stdDeviation="4"/>
<feComposite in2="hardAlpha" operator="out"/>
<feColorMatrix type="matrix" values="0 0 0 0 0 0 0 0 0 0 0 0 0 0 0 0 0 0 0.3 0"/>
<feBlend mode="normal" in2="BackgroundImageFix" result="effect1_dropShadow_331_223"/>
<feBlend mode="normal" in="SourceGraphic" in2="effect1_dropShadow_331_223" result="shape"/>
</filter>
</defs>
</svg>
