<svg width="24" height="25" viewBox="0 0 24 25" fill="none" xmlns="http://www.w3.org/2000/svg">
<path d="M5.85 17.6C6.7 16.95 7.65 16.4373 8.7 16.062C9.75 15.6867 10.85 15.4993 12 15.5C13.15 15.5 14.25 15.6877 15.3 16.063C16.35 16.4383 17.3 16.9507 18.15 17.6C18.7333 16.9167 19.1877 16.1417 19.513 15.275C19.8383 14.4083 20.0007 13.4833 20 12.5C20 10.2833 19.221 8.39567 17.663 6.837C16.105 5.27833 14.2173 4.49933 12 4.5C9.78333 4.5 7.89567 5.279 6.337 6.837C4.77833 8.395 3.99933 10.2827 4 12.5C4 13.4833 4.16267 14.4083 4.488 15.275C4.81333 16.1417 5.26733 16.9167 5.85 17.6ZM12 13.5C11.0167 13.5 10.1873 13.1627 9.512 12.488C8.83667 11.8133 8.49933 10.984 8.5 10C8.5 9.01667 8.83733 8.18733 9.512 7.512C10.1867 6.83667 11.016 6.49933 12 6.5C12.9833 6.5 13.8127 6.83733 14.488 7.512C15.1633 8.18667 15.5007 9.016 15.5 10C15.5 10.9833 15.1627 11.8127 14.488 12.488C13.8133 13.1633 12.984 13.5007 12 13.5ZM12 22.5C10.6167 22.5 9.31667 22.2373 8.1 21.712C6.88333 21.1867 5.825 20.4743 4.925 19.575C4.025 18.675 3.31267 17.6167 2.788 16.4C2.26333 15.1833 2.00067 13.8833 2 12.5C2 11.1167 2.26267 9.81667 2.788 8.6C3.31333 7.38333 4.02567 6.325 4.925 5.425C5.825 4.525 6.88333 3.81267 8.1 3.288C9.31667 2.76333 10.6167 2.50067 12 2.5C13.3833 2.5 14.6833 2.76267 15.9 3.288C17.1167 3.81333 18.175 4.52567 19.075 5.425C19.975 6.325 20.6877 7.38333 21.213 8.6C21.7383 9.81667 22.0007 11.1167 22 12.5C22 13.8833 21.7373 15.1833 21.212 16.4C20.6867 17.6167 19.9743 18.675 19.075 19.575C18.175 20.475 17.1167 21.1877 15.9 21.713C14.6833 22.2383 13.3833 22.5007 12 22.5ZM12 20.5C12.8833 20.5 13.7167 20.3707 14.5 20.112C15.2833 19.8533 16 19.4827 16.65 19C16 18.5167 15.2833 18.1457 14.5 17.887C13.7167 17.6283 12.8833 17.4993 12 17.5C11.1167 17.5 10.2833 17.6293 9.5 17.888C8.71667 18.1467 8 18.5173 7.35 19C8 19.4833 8.71667 19.8543 9.5 20.113C10.2833 20.3717 11.1167 20.5007 12 20.5ZM12 11.5C12.4333 11.5 12.7917 11.3583 13.075 11.075C13.3583 10.7917 13.5 10.4333 13.5 10C13.5 9.56667 13.3583 9.20833 13.075 8.925C12.7917 8.64167 12.4333 8.5 12 8.5C11.5667 8.5 11.2083 8.64167 10.925 8.925C10.6417 9.20833 10.5 9.56667 10.5 10C10.5 10.4333 10.6417 10.7917 10.925 11.075C11.2083 11.3583 11.5667 11.5 12 11.5Z" fill="black"/>
</svg>
