<svg width="24" height="25" viewBox="0 0 24 25" fill="none" xmlns="http://www.w3.org/2000/svg">
<path d="M13.875 22.5H10.125C9.87497 22.5 9.6583 22.4167 9.47497 22.25C9.29164 22.0833 9.1833 21.875 9.14997 21.625L8.84997 19.3C8.6333 19.2167 8.42897 19.1167 8.23697 19C8.04497 18.8833 7.85764 18.7583 7.67497 18.625L5.49997 19.525C5.26664 19.6083 5.0333 19.6167 4.79997 19.55C4.56664 19.4833 4.3833 19.3417 4.24997 19.125L2.39997 15.9C2.26664 15.6833 2.22497 15.45 2.27497 15.2C2.32497 14.95 2.44997 14.75 2.64997 14.6L4.52497 13.175C4.5083 13.0583 4.49997 12.9457 4.49997 12.837V12.163C4.49997 12.0543 4.5083 11.9417 4.52497 11.825L2.64997 10.4C2.44997 10.25 2.32497 10.05 2.27497 9.8C2.22497 9.55 2.26664 9.31667 2.39997 9.1L4.24997 5.875C4.36664 5.64167 4.54564 5.49567 4.78697 5.437C5.0283 5.37833 5.26597 5.391 5.49997 5.475L7.67497 6.375C7.8583 6.24167 8.04997 6.11667 8.24997 6C8.44997 5.88333 8.64997 5.78333 8.84997 5.7L9.14997 3.375C9.1833 3.125 9.29164 2.91667 9.47497 2.75C9.6583 2.58333 9.87497 2.5 10.125 2.5H13.875C14.125 2.5 14.3416 2.58333 14.525 2.75C14.7083 2.91667 14.8166 3.125 14.85 3.375L15.15 5.7C15.3666 5.78333 15.571 5.88333 15.763 6C15.955 6.11667 16.1423 6.24167 16.325 6.375L18.5 5.475C18.7333 5.39167 18.9666 5.38333 19.2 5.45C19.4333 5.51667 19.6166 5.65833 19.75 5.875L21.6 9.1C21.7333 9.31667 21.775 9.55 21.725 9.8C21.675 10.05 21.55 10.25 21.35 10.4L19.475 11.825C19.4916 11.9417 19.5 12.0543 19.5 12.163V12.837C19.5 12.9457 19.4833 13.0583 19.45 13.175L21.325 14.6C21.525 14.75 21.65 14.95 21.7 15.2C21.75 15.45 21.7083 15.6833 21.575 15.9L19.725 19.1C19.5916 19.3167 19.404 19.4627 19.162 19.538C18.92 19.6133 18.6826 19.609 18.45 19.525L16.325 18.625C16.1416 18.7583 15.95 18.8833 15.75 19C15.55 19.1167 15.35 19.2167 15.15 19.3L14.85 21.625C14.8166 21.875 14.7083 22.0833 14.525 22.25C14.3416 22.4167 14.125 22.5 13.875 22.5ZM12.05 16C13.0166 16 13.8416 15.6583 14.525 14.975C15.2083 14.2917 15.55 13.4667 15.55 12.5C15.55 11.5333 15.2083 10.7083 14.525 10.025C13.8416 9.34167 13.0166 9 12.05 9C11.0666 9 10.2373 9.34167 9.56197 10.025C8.88664 10.7083 8.5493 11.5333 8.54997 12.5C8.54997 13.4667 8.8873 14.2917 9.56197 14.975C10.2366 15.6583 11.066 16 12.05 16ZM12.05 14C11.6333 14 11.279 13.854 10.987 13.562C10.695 13.27 10.5493 12.916 10.55 12.5C10.55 12.0833 10.696 11.729 10.988 11.437C11.28 11.145 11.634 10.9993 12.05 11C12.4666 11 12.821 11.146 13.113 11.438C13.405 11.73 13.5506 12.084 13.55 12.5C13.55 12.9167 13.404 13.271 13.112 13.563C12.82 13.855 12.466 14.0007 12.05 14ZM11 20.5H12.975L13.325 17.85C13.8416 17.7167 14.321 17.5207 14.763 17.262C15.205 17.0033 15.609 16.691 15.975 16.325L18.45 17.35L19.425 15.65L17.275 14.025C17.3583 13.7917 17.4166 13.546 17.45 13.288C17.4833 13.03 17.5 12.7673 17.5 12.5C17.5 12.2333 17.4833 11.971 17.45 11.713C17.4166 11.455 17.3583 11.209 17.275 10.975L19.425 9.35L18.45 7.65L15.975 8.7C15.6083 8.31667 15.2043 7.996 14.763 7.738C14.3216 7.48 13.8423 7.284 13.325 7.15L13 4.5H11.025L10.675 7.15C10.1583 7.28333 9.6793 7.47933 9.23797 7.738C8.79664 7.99667 8.3923 8.309 8.02497 8.675L5.54997 7.65L4.57497 9.35L6.72497 10.95C6.64164 11.2 6.5833 11.45 6.54997 11.7C6.51664 11.95 6.49997 12.2167 6.49997 12.5C6.49997 12.7667 6.51664 13.025 6.54997 13.275C6.5833 13.525 6.64164 13.775 6.72497 14.025L4.57497 15.65L5.54997 17.35L8.02497 16.3C8.39164 16.6833 8.79597 17.0043 9.23797 17.263C9.67997 17.5217 10.159 17.7173 10.675 17.85L11 20.5Z" fill="black"/>
</svg>
