<svg width="24" height="24" viewBox="0 0 24 24" fill="none" xmlns="http://www.w3.org/2000/svg">
<g clip-path="url(#clip0_331_208)">
<path d="M14 4.5H4.125C3.62772 4.5 3.15081 4.69754 2.79917 5.04917C2.44754 5.40081 2.25 5.87772 2.25 6.375V17.625C2.25 18.1223 2.44754 18.5992 2.79917 18.9508C3.15081 19.3025 3.62772 19.5 4.125 19.5H19.8155C20.3128 19.5 20.7897 19.3025 21.1413 18.9508C21.4929 18.5992 21.6905 18.1223 21.6905 17.625V12" stroke="black" stroke-width="2" stroke-linecap="round" stroke-linejoin="round"/>
<path d="M5.25 7.5L12 12.75L16.0781 9.67172" stroke="black" stroke-width="2" stroke-linecap="round" stroke-linejoin="round"/>
<path d="M18.0555 8.91014C18.631 9.29466 19.3075 9.49992 19.9996 9.5C20.9277 9.49928 21.8177 9.13025 22.474 8.47396C23.1302 7.81767 23.4993 6.92776 23.5 5.99963L18.0555 8.91014ZM18.0555 8.91014C17.4799 8.52556 17.0313 7.97893 16.7664 7.33939M18.0555 8.91014L16.7664 7.33939M16.7664 7.33939C16.5015 6.69985 16.4322 5.99612 16.5673 5.31718M16.7664 7.33939L16.5673 5.31718M16.5673 5.31718C16.7023 4.63825 17.0356 4.01461 17.5251 3.52513M16.5673 5.31718L17.5251 3.52513M17.5251 3.52513C18.0146 3.03564 18.6383 2.7023 19.3172 2.56725M17.5251 3.52513L19.3172 2.56725M19.3172 2.56725C19.9961 2.43221 20.6999 2.50152 21.3394 2.76642M19.3172 2.56725L21.3394 2.76642M21.3394 2.76642C21.9789 3.03133 22.5256 3.47993 22.9101 4.05551M21.3394 2.76642L22.9101 4.05551M22.9101 4.05551C23.2947 4.63097 23.4999 5.30751 23.5 5.99961L22.9101 4.05551ZM18.6099 3.92125L18.8871 4.33737L18.6099 3.92125C18.198 4.19566 17.8768 4.58608 17.6869 5.04311C17.4969 5.50014 17.4468 6.00324 17.5429 6.48876C17.639 6.97427 17.8769 7.42037 18.2266 7.77062C18.5763 8.12086 19.022 8.35949 19.5074 8.45634C19.9928 8.55318 20.4959 8.50387 20.9533 8.31464C21.4106 8.12542 21.8015 7.80479 22.0766 7.39333C22.3516 6.98187 22.4984 6.49806 22.4984 6.00313C22.4984 5.34035 22.2354 4.70466 21.7671 4.23564C21.2988 3.76662 20.6636 3.5026 20.0008 3.50157C19.5059 3.50079 19.0218 3.64685 18.6099 3.92125Z" stroke="black"/>
</g>
<defs>
<clipPath id="clip0_331_208">
<rect width="24" height="24" fill="white"/>
</clipPath>
</defs>
</svg>
