<svg width="30" height="30" viewBox="0 0 30 30" fill="none" xmlns="http://www.w3.org/2000/svg">
<path d="M19.7811 4.60478C20.3052 4.08098 21.0159 3.78674 21.757 3.78674C22.498 3.78674 23.2087 4.08098 23.7329 4.60478L25.4676 6.33948C25.9914 6.86365 26.2856 7.57435 26.2856 8.31538C26.2856 9.0564 25.9914 9.76711 25.4676 10.2913L11.7145 24.0443C11.3791 24.3797 10.9638 24.6257 10.507 24.7551L5.31403 26.2406C5.10849 26.2994 4.89098 26.302 4.68406 26.2484C4.47713 26.1947 4.28834 26.0866 4.13726 25.9354C3.98619 25.7842 3.87833 25.5953 3.82488 25.3883C3.77144 25.1813 3.77435 24.9638 3.83331 24.7583L5.31723 19.567C5.44661 19.1101 5.6926 18.6932 6.02804 18.3562L19.7811 4.60318V4.60478ZM20.0622 12.3087L17.7636 10.0085L7.72281 20.051C7.67478 20.099 7.63962 20.1583 7.62058 20.2235L6.72927 23.3431L9.84886 22.4518C9.91404 22.4327 9.97337 22.3976 10.0214 22.3495L20.0622 12.3087ZM22.0397 6.29795C22.0026 6.26076 21.9585 6.23126 21.91 6.21112C21.8615 6.19099 21.8095 6.18063 21.757 6.18063C21.7044 6.18063 21.6524 6.19099 21.6039 6.21112C21.5554 6.23126 21.5113 6.26076 21.4742 6.29795L19.4584 8.31538L21.757 10.6155L23.7744 8.5981C23.8116 8.56101 23.8411 8.51694 23.8612 8.46843C23.8813 8.41991 23.8917 8.3679 23.8917 8.31538C23.8917 8.26285 23.8813 8.21084 23.8612 8.16233C23.8411 8.11381 23.8116 8.06974 23.7744 8.03265L22.0397 6.29795Z" fill="black"/>
</svg>
