<svg width="24" height="25" viewBox="0 0 24 25" fill="none" xmlns="http://www.w3.org/2000/svg">
<path d="M21.2344 5.78751L12.2344 2.7875C12.0817 2.74051 11.9184 2.74051 11.7656 2.7875L2.77502 5.78751H2.75627L2.66252 5.83438H2.65314L2.55939 5.89063C2.55939 5.90001 2.55002 5.9 2.54064 5.90938L2.46564 5.97501L2.40002 6.05C2.40002 6.05938 2.39064 6.05938 2.39064 6.06876L2.33439 6.15313C2.33439 6.1625 2.33439 6.1625 2.32502 6.17188L2.28752 6.25626L2.25939 6.35938V6.3875C2.25015 6.42424 2.24698 6.46224 2.25002 6.50001V14C2.25002 14.1989 2.32904 14.3897 2.46969 14.5303C2.61034 14.671 2.80111 14.75 3.00002 14.75C3.19893 14.75 3.3897 14.671 3.53035 14.5303C3.671 14.3897 3.75002 14.1989 3.75002 14V7.54063L6.90002 8.59063C6.30823 9.53788 5.99624 10.6331 6.00002 11.75C6.00036 12.7658 6.2586 13.7649 6.75051 14.6536C7.24243 15.5423 7.95193 16.2916 8.81252 16.8313C7.02414 17.5078 5.49739 18.7358 4.45314 20.3375C4.34671 20.5058 4.31065 20.7092 4.35273 20.9039C4.39482 21.0985 4.51168 21.2688 4.67814 21.3781C4.75983 21.4323 4.85145 21.4696 4.94769 21.4881C5.04393 21.5066 5.14288 21.5057 5.2388 21.4857C5.33472 21.4656 5.42571 21.4267 5.50649 21.3713C5.58727 21.3158 5.65623 21.2448 5.70939 21.1625C6.39014 20.1139 7.32221 19.2521 8.42085 18.6555C9.51949 18.0589 10.7498 17.7464 12 17.7464C13.2502 17.7464 14.4806 18.0589 15.5792 18.6555C16.6778 19.2521 17.6099 20.1139 18.2906 21.1625C18.3591 21.2665 18.4524 21.3518 18.562 21.4107C18.6717 21.4696 18.7943 21.5003 18.9188 21.5C19.0624 21.5015 19.2031 21.459 19.3219 21.3781C19.4884 21.2688 19.6052 21.0985 19.6473 20.9039C19.6894 20.7092 19.6533 20.5058 19.5469 20.3375C18.5027 18.7358 16.9759 17.5078 15.1875 16.8313C16.0481 16.2916 16.7576 15.5423 17.2495 14.6536C17.7414 13.7649 17.9997 12.7658 18 11.75C18.0038 10.6331 17.6918 9.53788 17.1 8.59063L21.2344 7.2125C21.3844 7.16319 21.5151 7.06775 21.6077 6.93981C21.7003 6.81187 21.7502 6.65795 21.7502 6.50001C21.7502 6.34206 21.7003 6.18814 21.6077 6.0602C21.5151 5.93226 21.3844 5.83682 21.2344 5.78751ZM16.5 11.75C16.5 12.9435 16.0259 14.0881 15.182 14.932C14.3381 15.7759 13.1935 16.25 12 16.25C10.8065 16.25 9.66195 15.7759 8.81804 14.932C7.97413 14.0881 7.50002 12.9435 7.50002 11.75C7.50183 10.7898 7.80698 9.85463 8.37189 9.07813L11.7656 10.2125C11.9179 10.2626 12.0822 10.2626 12.2344 10.2125L15.6281 9.07813C16.1931 9.85463 16.4982 10.7898 16.5 11.75ZM15.6281 7.50313H15.6188L12 8.7125L8.38127 7.50313H8.37189L5.37189 6.50001L12 4.2875L18.6281 6.50001L15.6281 7.50313Z" fill="#6EA8FE"/>
</svg>
